<?xml version="1.0" encoding="UTF-8"?>
<svg version="1.1" xmlns="http://www.w3.org/2000/svg" width="500" height="500">
<path d="M0 0 C0.96955124 0.00141495 1.93910248 0.0028299 2.93803406 0.00428772 C6.02512742 0.00987112 9.11214742 0.02242061 12.19921875 0.03515625 C14.29622291 0.04017339 16.39322821 0.04473593 18.49023438 0.04882812 C23.62242396 0.05983513 28.75455893 0.07708837 33.88671875 0.09765625 C33.13671875 7.72265625 33.13671875 7.72265625 30.88671875 11.09765625 C27.84231599 11.4352666 24.99190635 11.58683068 21.94140625 11.609375 C20.6138884 11.6363018 20.6138884 11.6363018 19.259552 11.66377258 C16.42698971 11.7180461 13.59459749 11.75182544 10.76171875 11.78515625 C8.84372624 11.81831433 6.92575622 11.85280256 5.0078125 11.88867188 C0.30090369 11.97378218 -4.40595319 12.04051162 -9.11328125 12.09765625 C-8.78328125 13.08765625 -8.45328125 14.07765625 -8.11328125 15.09765625 C-6.29739502 15.10381958 -6.29739502 15.10381958 -4.44482422 15.11010742 C0.061952 15.13193769 4.56786 15.18626778 9.07421875 15.25024414 C11.02172502 15.2733902 12.96935586 15.28781188 14.91699219 15.29321289 C17.72279177 15.30252734 20.52664129 15.34357131 23.33203125 15.390625 C24.19788849 15.38669235 25.06374573 15.3827597 25.95584106 15.37870789 C31.97575293 15.52284496 34.70515813 16.72022732 38.88671875 21.09765625 C40.28537778 23.8949743 40.13209142 26.29050184 40.19921875 29.41015625 C40.25529297 31.10591797 40.25529297 31.10591797 40.3125 32.8359375 C39.79941584 36.76644464 38.63520798 38.29964469 35.88671875 41.09765625 C29.99761982 45.0237222 23.0793866 44.23151836 16.23828125 44.1953125 C15.22575287 44.19389755 14.21322449 44.1924826 13.17001343 44.19102478 C9.95055124 44.18544768 6.73115976 44.17289937 3.51171875 44.16015625 C1.32291767 44.15513829 -0.8658845 44.1505759 -3.0546875 44.14648438 C-8.40757602 44.13548575 -13.76042358 44.11877045 -19.11328125 44.09765625 C-19.80078125 42.53515625 -19.80078125 42.53515625 -20.11328125 40.09765625 C-19.12328125 37.78765625 -18.13328125 35.47765625 -17.11328125 33.09765625 C-2.59328125 32.76765625 11.92671875 32.43765625 26.88671875 32.09765625 C27.21671875 30.44765625 27.54671875 28.79765625 27.88671875 27.09765625 C26.27615601 27.12122192 26.27615601 27.12122192 24.63305664 27.14526367 C20.61311476 27.19995579 16.59320513 27.23414783 12.57299805 27.26245117 C10.83986869 27.27744894 9.10677671 27.29785397 7.3737793 27.32397461 C4.8688835 27.36075828 2.36449355 27.37747276 -0.140625 27.390625 C-1.2849424 27.41385078 -1.2849424 27.41385078 -2.45237732 27.43754578 C-8.65305639 27.43944424 -15.44561181 26.5992451 -20.12109375 22.21484375 C-22.49177665 17.15614243 -22.73489138 11.89705401 -20.92578125 6.66015625 C-18.6757809 3.47912127 -16.90516903 1.60646929 -13.11254883 0.52954102 C-8.73857424 -0.10029708 -4.41309655 -0.02431805 0 0 Z " fill="#0E2469" transform="translate(397.11328125,229.90234375)"/>
<path d="M0 0 C1.006073 0.00012085 1.006073 0.00012085 2.0324707 0.00024414 C4.0583245 -0.00192564 6.08361888 -0.02002855 8.109375 -0.0390625 C9.39392578 -0.04099609 10.67847656 -0.04292969 12.00195312 -0.04492188 C13.17910889 -0.04903076 14.35626465 -0.05313965 15.5690918 -0.05737305 C20.05069451 0.26981124 23.56661101 1.21509874 27.20898438 3.87304688 C29.5287676 7.05200907 29.76569127 9.26175367 29.89648438 13.18554688 C29.53510005 14.54931106 29.13813294 15.90406663 28.70898438 17.24804688 C28.0610964 19.23806494 28.0610964 19.23806494 27.89648438 21.18554688 C29.17044328 23.22388112 30.5071036 25.22406814 31.89648438 27.18554688 C32.85021191 31.64827196 32.2376264 34.55031691 30.08398438 38.56054688 C26.83535339 42.45890406 24.38359175 43.50782451 19.41113281 44.02441406 C14.11834573 44.36356353 8.82294821 44.32815971 3.52148438 44.31054688 C2.33425781 44.31441406 1.14703125 44.31828125 -0.07617188 44.32226562 C-1.20667969 44.32097656 -2.3371875 44.3196875 -3.50195312 44.31835938 C-4.52981934 44.31723145 -5.55768555 44.31610352 -6.61669922 44.31494141 C-9.10351562 44.18554688 -9.10351562 44.18554688 -11.10351562 43.18554688 C-11.10351562 33.28554688 -11.10351562 23.38554687 -11.10351562 13.18554688 C-7.47351563 13.18554688 -3.84351563 13.18554688 -0.10351562 13.18554688 C-0.10351562 14.17554688 -0.10351562 15.16554687 -0.10351562 16.18554688 C5.83648437 16.18554688 11.77648437 16.18554688 17.89648438 16.18554688 C17.89648438 14.86554688 17.89648438 13.54554688 17.89648438 12.18554688 C8.32648438 11.85554687 -1.24351562 11.52554688 -11.10351562 11.18554688 C-11.10351562 -1.96606555 -11.09702653 0.05036472 0 0 Z M-0.10351562 27.18554688 C-0.10351562 29.16554688 -0.10351562 31.14554687 -0.10351562 33.18554688 C6.49648437 33.18554688 13.09648437 33.18554688 19.89648438 33.18554688 C20.22648437 31.53554688 20.55648437 29.88554687 20.89648438 28.18554688 C15.01448654 24.26421499 6.66350956 26.409003 -0.10351562 27.18554688 Z " fill="#09206E" transform="translate(138.103515625,229.814453125)"/>
<path d="M0 0 C1.11310547 0.00451172 2.22621094 0.00902344 3.37304688 0.01367188 C6.10292101 0.02538807 8.83268174 0.04179301 11.5625 0.0625 C11.74595639 4.54953763 10.75982813 7.12562043 8.5625 11.0625 C7.86165283 11.0718457 7.16080566 11.08119141 6.4387207 11.09082031 C3.25010975 11.14464544 0.06294667 11.22826936 -3.125 11.3125 C-4.22779297 11.32667969 -5.33058594 11.34085938 -6.46679688 11.35546875 C-12.86647438 11.49878504 -12.86647438 11.49878504 -18.64453125 13.984375 C-21.83436936 17.68152941 -21.60385483 20.23820985 -21.4375 25.0625 C-21.00895005 27.37286915 -21.00895005 27.37286915 -20.4375 29.0625 C-19.7775 29.0625 -19.1175 29.0625 -18.4375 29.0625 C-18.4375 29.7225 -18.4375 30.3825 -18.4375 31.0625 C-15.70500659 31.81527515 -13.15649317 32.22891703 -10.328125 32.37890625 C-9.19697266 32.44174805 -9.19697266 32.44174805 -8.04296875 32.50585938 C-7.26566406 32.54517578 -6.48835938 32.58449219 -5.6875 32.625 C-4.49833984 32.68977539 -4.49833984 32.68977539 -3.28515625 32.75585938 C-1.33612185 32.86152991 0.61316748 32.96247966 2.5625 33.0625 C2.5625 31.4125 2.5625 29.7625 2.5625 28.0625 C-2.3875 28.0625 -7.3375 28.0625 -12.4375 28.0625 C-10.5625 19.3125 -10.5625 19.3125 -9.4375 17.0625 C-5.79168313 17.03362488 -2.14589537 17.01574415 1.5 17 C3.06137695 16.98743164 3.06137695 16.98743164 4.65429688 16.97460938 C5.64365234 16.97138672 6.63300781 16.96816406 7.65234375 16.96484375 C9.02700806 16.95698853 9.02700806 16.95698853 10.42944336 16.94897461 C12.5625 17.0625 12.5625 17.0625 13.5625 18.0625 C14.98956281 34.57307479 14.98956281 34.57307479 10.875 39.5 C5.27754922 44.80817684 -1.44237945 44.40443603 -8.703125 44.24609375 C-16.40881017 43.86725776 -22.83166269 42.711906 -28.4375 37.0625 C-32.9669786 31.52795958 -33.05273237 25.33090895 -32.80859375 18.40625 C-32.17133476 12.66421111 -30.77938023 9.11955696 -26.4140625 5.28515625 C-18.19961378 -0.67242175 -9.79446156 -0.07556558 0 0 Z " fill="#10246E" transform="translate(231.4375,229.9375)"/>
<path d="M0 0 C2.4375 1.9375 2.4375 1.9375 4 4 C4 4.66 4 5.32 4 6 C4.66 6 5.32 6 6 6 C7.4453125 7.3984375 7.4453125 7.3984375 9.125 9.375 C9.73730469 10.09429687 10.34960938 10.81359375 10.98046875 11.5546875 C14.37249139 15.66185612 17.70073693 19.81807694 21 24 C20.99476318 23.31373535 20.98952637 22.6274707 20.98413086 21.92041016 C20.96339044 18.82194936 20.95034924 15.72350314 20.9375 12.625 C20.92912109 11.54476562 20.92074219 10.46453125 20.91210938 9.3515625 C20.90888672 8.3203125 20.90566406 7.2890625 20.90234375 6.2265625 C20.89710693 5.27346191 20.89187012 4.32036133 20.88647461 3.33837891 C21 1 21 1 22 -1 C23.47906892 -1.02689216 24.95827483 -1.04634621 26.4375 -1.0625 C27.26121094 -1.07410156 28.08492188 -1.08570313 28.93359375 -1.09765625 C31 -1 31 -1 32 0 C32.11352009 2.84925891 32.16418626 5.67335579 32.16796875 8.5234375 C32.17296135 9.80911118 32.17296135 9.80911118 32.17805481 11.12075806 C32.18312825 12.93824729 32.18546301 14.75574588 32.18530273 16.57324219 C32.18748532 19.35627617 32.20562566 22.13891145 32.22460938 24.921875 C32.22754397 26.68489447 32.22952832 28.44791584 32.23046875 30.2109375 C32.23765427 31.04539398 32.24483978 31.87985046 32.25224304 32.73959351 C32.22882396 38.65676406 32.22882396 38.65676406 30 42 C26.875 43.125 26.875 43.125 23 43 C16.29689118 39.05305968 11.63698151 32.07604474 7 26 C4.69 23.03 2.38 20.06 0 17 C-0.33 25.25 -0.66 33.5 -1 42 C-4.63 42 -8.26 42 -12 42 C-12.12366591 36.51912668 -12.21436943 31.03906643 -12.2746582 25.55712891 C-12.29979147 23.69272719 -12.33390383 21.8284239 -12.37719727 19.96435547 C-12.43790352 17.28328169 -12.46622058 14.60351098 -12.48828125 11.921875 C-12.51408768 11.08944275 -12.5398941 10.2570105 -12.56648254 9.39935303 C-12.5684908 5.24885241 -12.56170308 3.62249037 -9.69213867 0.44238281 C-5.98690519 -1.5427917 -3.98966191 -1.16062892 0 0 Z " fill="#142972" transform="translate(289,231)"/>
<path d="M0 0 C0.75643295 0.00142502 1.51286591 0.00285004 2.29222107 0.00431824 C3.57849144 -0.00029671 3.57849144 -0.00029671 4.89074707 -0.00500488 C5.81785995 0.00218063 6.74497284 0.00936615 7.70018005 0.01676941 C8.64940842 0.01722763 9.59863678 0.01768585 10.57662964 0.01815796 C12.58486683 0.02118178 14.59310164 0.02907192 16.6013031 0.04142761 C19.68708029 0.05968377 22.77255763 0.06193734 25.85838318 0.06169128 C27.80565142 0.06660633 29.75291761 0.07243459 31.70018005 0.07926941 C33.09388573 0.08093864 33.09388573 0.08093864 34.51574707 0.0826416 C35.37010849 0.08902145 36.22446991 0.09540131 37.10472107 0.10197449 C37.86035843 0.10578629 38.61599579 0.10959808 39.39453125 0.11352539 C41.1337738 0.24723816 41.1337738 0.24723816 42.1337738 1.24723816 C42.2316795 2.7446194 42.26352245 4.24666708 42.2587738 5.74723816 C42.26264099 6.96926941 42.26264099 6.96926941 42.2665863 8.21598816 C42.1337738 10.24723816 42.1337738 10.24723816 41.1337738 11.24723816 C35.8537738 11.24723816 30.5737738 11.24723816 25.1337738 11.24723816 C25.1337738 21.80723816 25.1337738 32.36723816 25.1337738 43.24723816 C17.1337738 44.24723816 17.1337738 44.24723816 14.1337738 43.24723816 C14.1337738 32.68723816 14.1337738 22.12723816 14.1337738 11.24723816 C8.5237738 11.24723816 2.9137738 11.24723816 -2.8662262 11.24723816 C-4.37284717 8.23399621 -4.04392992 5.56437439 -3.8662262 2.24723816 C-1.8662262 0.24723816 -1.8662262 0.24723816 0 0 Z " fill="#132770" transform="translate(329.86622619628906,229.7527618408203)"/>
<path d="M0 0 C1.65 0 3.3 0 5 0 C5 5.61 5 11.22 5 17 C-0.66666667 17 -6.33333333 17 -12 17 C-12 15.02 -12 13.04 -12 11 C-12.66 11 -13.32 11 -14 11 C-14 12.98 -14 14.96 -14 17 C-15.32 17 -16.64 17 -18 17 C-18.495 16.01 -18.495 16.01 -19 15 C-19.66 15.66 -20.32 16.32 -21 17 C-23.9375 17.3125 -23.9375 17.3125 -27 17 C-27.99 16.01 -28.98 15.02 -30 14 C-31.32 16.64 -32.64 19.28 -34 22 C-35.65 22 -37.3 22 -39 22 C-38.814375 20.88625 -38.62875 19.7725 -38.4375 18.625 C-37.68319343 15.17431139 -37.68319343 15.17431139 -39 13 C-39.5259375 13.99 -39.5259375 13.99 -40.0625 15 C-42 17 -42 17 -45.4375 17.25 C-46.613125 17.1675 -47.78875 17.085 -49 17 C-51.03518999 17 -53.07056242 17.00117822 -55.10546875 17.03515625 C-57.07017802 17.06095919 -59.03538528 17.0322068 -61 17 C-62 16 -62 16 -62.1328125 12.875 C-62.13023438 11.59625 -62.12765625 10.3175 -62.125 9 C-62.12757812 7.72125 -62.13015625 6.4425 -62.1328125 5.125 C-62 2 -62 2 -61 1 C-56.96839809 0.73706944 -55.44107266 0.70595156 -52 3 C-51.8125 5.625 -51.8125 5.625 -52 8 C-51.34 8.33 -50.68 8.66 -50 9 C-50 8.34 -50 7.68 -50 7 C-44.96263052 5.86659187 -41.03781894 6.24432716 -36 7 C-32.52799265 7 -29.07859897 6.49316447 -25.62890625 6.12109375 C-23 6 -23 6 -20 7 C-19.505 7.99 -19.505 7.99 -19 9 C-18.67 8.34 -18.34 7.68 -18 7 C-14.18015204 6.22188282 -11.73159669 5.75613444 -8 7 C-8 7.66 -8 8.32 -8 9 C-7.34 9 -6.68 9 -6 9 C-6 8.34 -6 7.68 -6 7 C-4.35 6.67 -2.7 6.34 -1 6 C-0.67 4.02 -0.34 2.04 0 0 Z M-24 10 C-24.33 10.99 -24.66 11.98 -25 13 C-24.01 12.67 -23.02 12.34 -22 12 C-22.66 11.34 -23.32 10.68 -24 10 Z M-57 11 C-56 13 -56 13 -56 13 Z M-3 11 C-2.67 11.66 -2.34 12.32 -2 13 C-1.34 13 -0.68 13 0 13 C0 12.34 0 11.68 0 11 C-0.99 11 -1.98 11 -3 11 Z " fill="#333333" transform="translate(188,280)"/>
<path d="M0 0 C3.34829705 2.20683215 5.74887487 4.13288596 7 8 C7.33083127 11.9699753 7.09972674 14.58794404 5 18 C4.34 18 3.68 18 3 18 C2.61365081 22.03188135 2.61365081 22.03188135 5 24.8125 C7.37815396 28.60268287 7.48870682 30.60163858 7 35 C6 37.4375 6 37.4375 5 39 C4.34 39 3.68 39 3 39 C3 39.66 3 40.32 3 41 C-0.68999422 43.3615963 -3.69154264 43.58419761 -8 43 C-11.09394984 41.52525737 -13.12540212 39.88061375 -15 37 C-16.00836312 32.6068766 -16.32674598 28.1173412 -13.859375 24.1796875 C-12.5 22.8125 -12.5 22.8125 -10 21 C-10.825 20.195625 -11.65 19.39125 -12.5 18.5625 C-15.37263348 15.1446358 -15.49890196 12.40377863 -15.37109375 8.05078125 C-15 6 -15 6 -13 3 C-12.34 3 -11.68 3 -11 3 C-11 2.34 -11 1.68 -11 1 C-6.92619746 -1.03690127 -4.38431207 -1.27875769 0 0 Z M-7 7 C-7.68493373 9.85778033 -7.68493373 9.85778033 -8 13 C-7.01 14.485 -7.01 14.485 -6 16 C-3.53199953 14.84826645 -1.95216435 13.95216435 0 12 C-0.40528901 9.21762345 -0.40528901 9.21762345 -2 7 C-3.66617115 6.95936168 -5.33388095 6.957279 -7 7 Z M-6 26 C-8.14915785 29.22373677 -8.38286803 30.26703674 -8 34 C-7.34 34.66 -6.68 35.32 -6 36 C-3.06546739 35.63318342 -2.13562754 35.13562754 0 33 C-0.38878188 29.98694043 -1.26456874 28.60314689 -3 26 C-3.99 26 -4.98 26 -6 26 Z " fill="#445490" transform="translate(100,232)"/>
<path d="M0 0 C0.96955124 0.00141495 1.93910248 0.0028299 2.93803406 0.00428772 C6.02512742 0.00987112 9.11214742 0.02242061 12.19921875 0.03515625 C14.29622291 0.04017339 16.39322821 0.04473593 18.49023438 0.04882812 C23.62242396 0.05983513 28.75455893 0.07708837 33.88671875 0.09765625 C33.13671875 7.72265625 33.13671875 7.72265625 30.88671875 11.09765625 C27.84231599 11.4352666 24.99190635 11.58683068 21.94140625 11.609375 C20.6138884 11.6363018 20.6138884 11.6363018 19.259552 11.66377258 C16.42698971 11.7180461 13.59459749 11.75182544 10.76171875 11.78515625 C8.84372624 11.81831433 6.92575622 11.85280256 5.0078125 11.88867188 C0.30090369 11.97378218 -4.40595319 12.04051162 -9.11328125 12.09765625 C-9.11328125 14.73765625 -9.11328125 17.37765625 -9.11328125 20.09765625 C-12.41328125 19.76765625 -15.71328125 19.43765625 -19.11328125 19.09765625 C-20.49299823 7.60001474 -20.49299823 7.60001474 -19.11328125 4.09765625 C-13.98472404 -1.03090096 -6.73500707 -0.03711276 0 0 Z " fill="#0B2168" transform="translate(397.11328125,229.90234375)"/>
<path d="M0 0 C3.1875 0.3125 3.1875 0.3125 5.625 2.0625 C7.1875 4.3125 7.1875 4.3125 6.9375 6.5625 C6.69 7.14 6.4425 7.7175 6.1875 8.3125 C6.785625 7.796875 7.38375 7.28125 8 6.75 C12.77457207 4.59676162 17.10728091 5.57404434 22.1875 6.3125 C22.1875 6.9725 22.1875 7.6325 22.1875 8.3125 C22.8475 8.3125 23.5075 8.3125 24.1875 8.3125 C24.1875 7.6525 24.1875 6.9925 24.1875 6.3125 C25.76976965 6.11622609 27.35339271 5.93084462 28.9375 5.75 C29.81921875 5.64558594 30.7009375 5.54117187 31.609375 5.43359375 C34.10213463 5.31650959 35.85875833 5.43659942 38.1875 6.3125 C38.6825 7.3025 38.6825 7.3025 39.1875 8.3125 C39.5175 7.6525 39.8475 6.9925 40.1875 6.3125 C43.5625 5.5625 43.5625 5.5625 47.1875 5.3125 C48.1775 5.9725 49.1675 6.6325 50.1875 7.3125 C50.59887202 10.35116799 50.31943156 13.23409703 50.1875 16.3125 C46.8875 16.3125 43.5875 16.3125 40.1875 16.3125 C39.6925 15.3225 39.6925 15.3225 39.1875 14.3125 C38.5275 14.9725 37.8675 15.6325 37.1875 16.3125 C32.85106399 16.62787716 30.86096771 16.76147847 27.1875 14.3125 C26.1975 16.6225 25.2075 18.9325 24.1875 21.3125 C22.5375 21.3125 20.8875 21.3125 19.1875 21.3125 C19.1875 19.0025 19.1875 16.6925 19.1875 14.3125 C18.1975 14.9725 17.2075 15.6325 16.1875 16.3125 C12.6875 16.4375 12.6875 16.4375 9.1875 16.3125 C8.1975 16.3125 7.2075 16.3125 6.1875 16.3125 C2.85416667 16.3125 -0.47916667 16.3125 -3.8125 16.3125 C-3.83935095 13.83326199 -3.85926547 11.3543116 -3.875 8.875 C-3.88756836 7.81442383 -3.88756836 7.81442383 -3.90039062 6.73242188 C-3.90903588 4.92556441 -3.86470011 3.11862397 -3.8125 1.3125 C-2.8125 0.3125 -2.8125 0.3125 0 0 Z M33.1875 9.3125 C33.1875 10.3025 33.1875 11.2925 33.1875 12.3125 C33.8475 12.3125 34.5075 12.3125 35.1875 12.3125 C34.8575 11.3225 34.5275 10.3325 34.1875 9.3125 C33.8575 9.3125 33.5275 9.3125 33.1875 9.3125 Z M1.1875 10.3125 C1.1875 10.9725 1.1875 11.6325 1.1875 12.3125 C1.8475 11.9825 2.5075 11.6525 3.1875 11.3125 C2.5275 10.9825 1.8675 10.6525 1.1875 10.3125 Z " fill="#363636" transform="translate(267.8125,280.6875)"/>
<path d="M0 0 C1.11310547 0.00451172 2.22621094 0.00902344 3.37304688 0.01367188 C6.10292101 0.02538807 8.83268174 0.04179301 11.5625 0.0625 C11.74595639 4.54953763 10.75982813 7.12562043 8.5625 11.0625 C7.86165283 11.0718457 7.16080566 11.08119141 6.4387207 11.09082031 C3.25010975 11.14464544 0.06294667 11.22826936 -3.125 11.3125 C-4.22779297 11.32667969 -5.33058594 11.34085938 -6.46679688 11.35546875 C-12.86647438 11.49878504 -12.86647438 11.49878504 -18.64453125 13.984375 C-21.81668449 17.66103192 -21.73712727 21.01612232 -22 25.6875 C-22.04318359 26.39390625 -22.08636719 27.1003125 -22.13085938 27.828125 C-22.23694751 29.57268537 -22.33772889 31.31756697 -22.4375 33.0625 C-23.4275 33.0625 -24.4175 33.0625 -25.4375 33.0625 C-25.7675 31.7425 -26.0975 30.4225 -26.4375 29.0625 C-27.7575 29.0625 -29.0775 29.0625 -30.4375 29.0625 C-30.6174928 23.84270872 -30.40844808 19.98987019 -28.4375 15.0625 C-28.1075 15.7225 -27.7775 16.3825 -27.4375 17.0625 C-26.75791397 14.66530568 -26.75791397 14.66530568 -26.4375 12.0625 C-27.0975 11.4025 -27.7575 10.7425 -28.4375 10.0625 C-27.48315609 6.24512436 -26.52741072 5.12596639 -23.25 2.8125 C-16.39421957 -1.10508882 -7.59474326 -0.05859446 0 0 Z " fill="#01196B" transform="translate(231.4375,229.9375)"/>
<path d="M0 0 C0.9075 0.00257813 1.815 0.00515625 2.75 0.0078125 C4.11125 0.00394531 4.11125 0.00394531 5.5 0 C7.75 0.1328125 7.75 0.1328125 8.75 1.1328125 C8.83874135 4.23532451 8.86518455 7.3154937 8.84765625 10.41796875 C8.8462413 11.34878769 8.84482635 12.27960663 8.84336853 13.2386322 C8.83775172 16.22422441 8.8251964 19.20974279 8.8125 22.1953125 C8.80748716 24.21419163 8.80292388 26.23307193 8.79882812 28.25195312 C8.78777683 33.21226822 8.77050095 38.17252782 8.75 43.1328125 C7.12585622 43.32758989 5.50063577 43.51340708 3.875 43.6953125 C2.51761719 43.85193359 2.51761719 43.85193359 1.1328125 44.01171875 C-1.25 44.1328125 -1.25 44.1328125 -3.25 43.1328125 C-3.27464574 37.16968084 -3.292834 31.20657855 -3.30493164 25.2434082 C-3.30997278 23.21312952 -3.31680557 21.18285448 -3.32543945 19.15258789 C-3.33751467 16.24103903 -3.34323034 13.329538 -3.34765625 10.41796875 C-3.35281754 9.5044313 -3.35797882 8.59089386 -3.36329651 7.64967346 C-3.36349168 5.47705823 -3.31211805 3.30453954 -3.25 1.1328125 C-2.25 0.1328125 -2.25 0.1328125 0 0 Z " fill="#021868" transform="translate(258.25,229.8671875)"/>
<path d="M0 0 C3.63 0 7.26 0 11 0 C11 14.19 11 28.38 11 43 C6.05 43.495 6.05 43.495 1 44 C0 43 0 43 -0.12025452 41.24729919 C-0.11803391 40.48562943 -0.11581329 39.72395966 -0.11352539 38.93920898 C-0.11344986 38.07839218 -0.11337433 37.21757538 -0.11329651 36.33067322 C-0.10813522 35.39526199 -0.10297394 34.45985077 -0.09765625 33.49609375 C-0.0962413 32.54307877 -0.09482635 31.59006378 -0.09336853 30.60816956 C-0.08775152 27.55124835 -0.07519616 24.49439923 -0.0625 21.4375 C-0.05748719 19.37044376 -0.05292391 17.30338638 -0.04882812 15.23632812 C-0.03777656 10.15752412 -0.02050055 5.0787743 0 0 Z " fill="#081C69" transform="translate(179,230)"/>
<path d="M0 0 C1.11503906 -0.01417969 2.23007812 -0.02835937 3.37890625 -0.04296875 C6.37472009 0.18276946 7.8440198 0.82190644 10.4375 2.1875 C11.7678125 1.7234375 11.7678125 1.7234375 13.125 1.25 C17.35810328 -0.10778784 21.13409505 0.06408481 25.4375 1.1875 C25.9325 2.1775 25.9325 2.1775 26.4375 3.1875 C26.7675 2.5275 27.0975 1.8675 27.4375 1.1875 C28.79875 1.2184375 28.79875 1.2184375 30.1875 1.25 C33.27106193 1.32319753 33.27106193 1.32319753 35.5 0.625 C38.02918692 0.05389328 39.94938197 0.56547049 42.4375 1.1875 C42.4375 4.4875 42.4375 7.7875 42.4375 11.1875 C41.014375 11.249375 39.59125 11.31125 38.125 11.375 C36.92423828 11.42720703 36.92423828 11.42720703 35.69921875 11.48046875 C32.95898416 11.12551608 32.14578921 10.29383718 30.4375 8.1875 C30.1075 9.1775 29.7775 10.1675 29.4375 11.1875 C26.5625 11.3125 26.5625 11.3125 23.4375 11.1875 C22.7775 10.5275 22.1175 9.8675 21.4375 9.1875 C20.7775 9.8475 20.1175 10.5075 19.4375 11.1875 C15.9375 11.4375 15.9375 11.4375 12.4375 11.1875 C11.7775 10.5275 11.1175 9.8675 10.4375 9.1875 C10.1075 9.8475 9.7775 10.5075 9.4375 11.1875 C8.1175 11.1875 6.7975 11.1875 5.4375 11.1875 C5.4375 9.2075 5.4375 7.2275 5.4375 5.1875 C4.7775 5.1875 4.1175 5.1875 3.4375 5.1875 C3.4375 7.1675 3.4375 9.1475 3.4375 11.1875 C0.4675 11.1875 -2.5025 11.1875 -5.5625 11.1875 C-5.8925 9.5375 -6.2225 7.8875 -6.5625 6.1875 C-6.8925 7.8375 -7.2225 9.4875 -7.5625 11.1875 C-8.8825 11.1875 -10.2025 11.1875 -11.5625 11.1875 C-11.5625 7.8875 -11.5625 4.5875 -11.5625 1.1875 C-7.6636916 0.27656346 -4.00078023 0.02317949 0 0 Z M15.4375 4.1875 C15.1075 5.1775 14.7775 6.1675 14.4375 7.1875 C15.4275 6.8575 16.4175 6.5275 17.4375 6.1875 C16.7775 5.5275 16.1175 4.8675 15.4375 4.1875 Z M36.4375 4.1875 C36.7675 5.1775 37.0975 6.1675 37.4375 7.1875 C37.4375 6.1975 37.4375 5.2075 37.4375 4.1875 C37.1075 4.1875 36.7775 4.1875 36.4375 4.1875 Z " fill="#2B2B2B" transform="translate(353.5625,285.8125)"/>
<path d="M0 0 C1.47906892 -0.02689216 2.95827483 -0.04634621 4.4375 -0.0625 C5.26121094 -0.07410156 6.08492188 -0.08570313 6.93359375 -0.09765625 C9 0 9 0 10 1 C10.11352009 3.84925891 10.16418626 6.67335579 10.16796875 9.5234375 C10.17129715 10.38055328 10.17462555 11.23766907 10.17805481 12.12075806 C10.18312825 13.93824729 10.18546301 15.75574588 10.18530273 17.57324219 C10.18748532 20.35627617 10.20562566 23.13891145 10.22460938 25.921875 C10.22754397 27.68489447 10.22952832 29.44791584 10.23046875 31.2109375 C10.23765427 32.04539398 10.24483978 32.87985046 10.25224304 33.73959351 C10.22882396 39.65676406 10.22882396 39.65676406 8 43 C4.77174084 43.99331051 2.35883906 44.70961595 -0.7578125 43.08203125 C-3.1445923 41.20835146 -4.79457306 39.54291405 -5.875 36.6875 C-5.91625 36.130625 -5.9575 35.57375 -6 35 C-5.01 35 -4.02 35 -3 35 C-2.71125 34.195625 -2.4225 33.39125 -2.125 32.5625 C-1 30 -1 30 1 29 C0.85761163 26.95809019 0.71092972 24.91647955 0.5625 22.875 C0.48128906 21.73804688 0.40007812 20.60109375 0.31640625 19.4296875 C0.04525924 16.03387433 0.04525924 16.03387433 -0.52734375 12.8359375 C-1.22070328 8.67578031 -1.92771648 3.85543296 0 0 Z " fill="#0C216F" transform="translate(311,230)"/>
<path d="M0 0 C3.0625 0.3125 3.0625 0.3125 4.9375 1.625 C6.0625 3.3125 6.0625 3.3125 6.0625 6.3125 C7.0525 6.6425 8.0425 6.9725 9.0625 7.3125 C8.7325 9.6225 8.4025 11.9325 8.0625 14.3125 C6.7425 14.3125 5.4225 14.3125 4.0625 14.3125 C3.7325 23.2225 3.4025 32.1325 3.0625 41.3125 C0.4225 41.3125 -2.2175 41.3125 -4.9375 41.3125 C-4.9868521 35.79493524 -5.02319662 30.27749829 -5.04736328 24.75976562 C-5.05743534 22.88181318 -5.07109362 21.00387647 -5.08837891 19.12597656 C-5.11257453 16.4302991 -5.12397083 13.73482854 -5.1328125 11.0390625 C-5.14313507 10.19630768 -5.15345764 9.35355286 -5.16409302 8.48526001 C-5.16449144 6.42628753 -5.06007588 4.36782065 -4.9375 2.3125 C-2.9375 0.3125 -2.9375 0.3125 0 0 Z " fill="#01186D" transform="translate(282.9375,230.6875)"/>
<path d="M0 0 C3.3125 0.125 3.3125 0.125 7 1 C10.2433608 5.7765859 10.38291702 9.83317365 10.1875 15.375 C10.17396484 16.11105469 10.16042969 16.84710938 10.14648438 17.60546875 C10.11144869 19.40396743 10.05765288 21.20208422 10 23 C10.99 23.33 11.98 23.66 13 24 C13 24.66 13 25.32 13 26 C12.34 26.33 11.68 26.66 11 27 C10.73813683 29.60672888 10.57821501 32.13669841 10.5 34.75 C10.21862854 43.95250199 10.21862854 43.95250199 8 48 C4.77208445 50.1519437 3.71599191 50.20086443 0 50 C0 49.34 0 48.68 0 48 C0.485896 47.54431641 0.97179199 47.08863281 1.47241211 46.61914062 C4.07919846 43.85612208 3.49906646 40.11873232 3.5625 36.5 C3.74546436 28.38180346 3.74546436 28.38180346 6 25 C5.34 24.01 4.68 23.02 4 22 C3.68115234 19.9152832 3.68115234 19.9152832 3.5859375 17.55078125 C3.54726562 16.70322266 3.50859375 15.85566406 3.46875 14.98242188 C3.4378125 14.10134766 3.406875 13.22027344 3.375 12.3125 C3.33632812 11.41982422 3.29765625 10.52714844 3.2578125 9.60742188 C3.16359782 7.4051538 3.07798412 5.20289278 3 3 C2.01 2.67 1.02 2.34 0 2 C0 1.34 0 0.68 0 0 Z " fill="#2A3972" transform="translate(108,228)"/>
<path d="M0 0 C-0.7115625 0.61875 -0.7115625 0.61875 -1.4375 1.25 C-5.27190015 5.54452817 -4.39911658 12.34568045 -4.71875 17.78515625 C-5 21 -5 21 -6 24 C-5.67 24.66 -5.34 25.32 -5 26 C-4.79201618 28.62868441 -4.62580793 31.24235262 -4.5 33.875 C-4.41989136 40.06441502 -4.41989136 40.06441502 -3 46 C-2.01 46.66 -1.02 47.32 0 48 C-0.495 48.495 -0.495 48.495 -1 49 C-4.4375 48.75 -4.4375 48.75 -8 48 C-10.88051001 43.67923499 -10.39012457 39.20265568 -10.47851562 34.16015625 C-10.48925599 29.85854527 -10.48925599 29.85854527 -12.52758789 26.25585938 C-13.01348389 25.84142578 -13.49937988 25.42699219 -14 25 C-13.505 23.515 -13.505 23.515 -13 22 C-12.34 22 -11.68 22 -11 22 C-10.98018066 21.44014404 -10.96036133 20.88028809 -10.93994141 20.3034668 C-10.84462217 17.76434146 -10.73497247 15.22603112 -10.625 12.6875 C-10.5940625 11.80642578 -10.563125 10.92535156 -10.53125 10.01757812 C-10.49257812 9.17001953 -10.45390625 8.32246094 -10.4140625 7.44921875 C-10.36693115 6.27879028 -10.36693115 6.27879028 -10.31884766 5.0847168 C-10 3 -10 3 -8 0 C-4.71023192 -1.09658936 -3.28696233 -0.79953138 0 0 Z " fill="#36457D" transform="translate(83,229)"/>
<path d="M0 0 C0.33 0.66 0.66 1.32 1 2 C0.67 2.66 0.34 3.32 0 4 C-0.66 4 -1.32 4 -2 4 C-2.38634919 8.03188135 -2.38634919 8.03188135 0 10.8125 C2.37815396 14.60268287 2.48870682 16.60163858 2 21 C1 23.4375 1 23.4375 0 25 C-0.66 25 -1.32 25 -2 25 C-2 25.66 -2 26.32 -2 27 C-5.68999422 29.3615963 -8.69154264 29.58419761 -13 29 C-16.09026686 27.52701288 -18.15748883 25.90085836 -20 23 C-20.57485874 19.25828551 -20.42065459 15.75250599 -20 12 C-19.34 11.67 -18.68 11.34 -18 11 C-18 14.63 -18 18.26 -18 22 C-17.34 22 -16.68 22 -16 22 C-15.67 22.66 -15.34 23.32 -15 24 C-14.608125 23.525625 -14.21625 23.05125 -13.8125 22.5625 C-11.58714287 20.64408868 -9.86097141 20.45173233 -7 20 C-5.75348985 18.96880393 -5.75348985 18.96880393 -5.8125 16.75 C-5.8295377 13.96214429 -5.8295377 13.96214429 -7.1875 11.5625 C-8 9 -8 9 -6.9375 5.875 C-4.88821858 2.8341308 -3.26289858 1.58735606 0 0 Z " fill="#182B6F" transform="translate(105,246)"/>
<path d="M0 0 C0.99 0.66 1.98 1.32 3 2 C3 2.99 3 3.98 3 5 C3.66 5.33 4.32 5.66 5 6 C5 4.68 5 3.36 5 2 C5.99 2 6.98 2 8 2 C8 3.32 8 4.64 8 6 C9.258125 5.814375 10.51625 5.62875 11.8125 5.4375 C14.82744268 4.99267239 16.00468461 5.00156154 19 6 C19.4640625 7.2375 19.4640625 7.2375 19.9375 8.5 C20.288125 9.325 20.63875 10.15 21 11 C23.04105639 11.88693303 23.04105639 11.88693303 25 12 C25 13.32 25 14.64 25 16 C24.195625 15.814375 23.39125 15.62875 22.5625 15.4375 C21.2940625 15.2209375 21.2940625 15.2209375 20 15 C19.67 15.33 19.34 15.66 19 16 C13.26388889 16.27314815 13.26388889 16.27314815 11 16 C10.34 15.34 9.68 14.68 9 14 C9.375 11.375 9.375 11.375 10 9 C9.34 9 8.68 9 8 9 C8 11.31 8 13.62 8 16 C7.01 16 6.02 16 5 16 C5 13.69 5 11.38 5 9 C4.34 9 3.68 9 3 9 C3 11.31 3 13.62 3 16 C1.35 16 -0.3 16 -2 16 C-2 11.05 -2 6.1 -2 1 C-1.34 0.67 -0.68 0.34 0 0 Z " fill="#3F3F40" transform="translate(233,281)"/>
<path d="M0 0 C3.2844392 0.30552923 4.51451953 0.7550965 6.6875 3.25 C7.0625 6.8125 7.0625 6.8125 6.6875 10.25 C6.0275 10.91 5.3675 11.57 4.6875 12.25 C4.1925 10.27 4.1925 10.27 3.6875 8.25 C3.00341064 8.41749756 2.31932129 8.58499512 1.61450195 8.75756836 C-1.7264416 9.31964052 -4.75925009 9.26312445 -8.14453125 9.12890625 C-9.43681641 9.08056641 -10.72910156 9.03222656 -12.06054688 8.98242188 C-13.41536994 8.92590949 -14.77018759 8.86926724 -16.125 8.8125 C-17.49932807 8.75922394 -18.87367703 8.70648399 -20.24804688 8.65429688 C-23.60310765 8.5248033 -26.95785727 8.38984284 -30.3125 8.25 C-30.3125 6.27 -30.3125 4.29 -30.3125 2.25 C-29.09348999 2.21241577 -29.09348999 2.21241577 -27.84985352 2.17407227 C-24.19139248 2.05850882 -20.53321472 1.93560416 -16.875 1.8125 C-15.59560547 1.77318359 -14.31621094 1.73386719 -12.99804688 1.69335938 C-11.17563477 1.63051758 -11.17563477 1.63051758 -9.31640625 1.56640625 C-8.19049072 1.52974854 -7.0645752 1.49309082 -5.90454102 1.45532227 C-3.05275626 1.22942503 -2.75942286 0.29831598 0 0 Z " fill="#051C6E" transform="translate(159.3125,230.75)"/>
<path d="M0 0 C1.20970459 0.00523682 2.41940918 0.01047363 3.66577148 0.01586914 C4.97094727 0.0190918 6.27612305 0.02231445 7.62084961 0.02563477 C9.00952213 0.03399138 10.39819401 0.04245634 11.78686523 0.05102539 C13.17944179 0.05603873 14.57202005 0.06060193 15.96459961 0.06469727 C19.38456394 0.07653105 22.80444367 0.09301659 26.22436523 0.11352539 C25.89436523 1.10352539 25.56436523 2.09352539 25.22436523 3.11352539 C16.31436523 3.11352539 7.40436523 3.11352539 -1.77563477 3.11352539 C-1.77563477 5.09352539 -1.77563477 7.07352539 -1.77563477 9.11352539 C2.46020094 9.1382186 6.69599866 9.1563821 10.93188477 9.16845703 C12.37329844 9.17349013 13.814707 9.18031712 15.25610352 9.18896484 C17.32626609 9.20107522 19.39636124 9.20676387 21.46655273 9.21118164 C23.33609619 9.21903687 23.33609619 9.21903687 25.2434082 9.22705078 C28.15207629 9.32169126 28.15207629 9.32169126 30.22436523 8.11352539 C31.54436523 9.10352539 32.86436523 10.09352539 34.22436523 11.11352539 C34.55436523 9.46352539 34.88436523 7.81352539 35.22436523 6.11352539 C38.05458621 10.10913147 36.9864697 13.54089862 36.22436523 18.11352539 C35.56436523 17.45352539 34.90436523 16.79352539 34.22436523 16.11352539 C33.23436523 16.44352539 32.24436523 16.77352539 31.22436523 17.11352539 C28.53686523 16.67602539 28.53686523 16.67602539 26.22436523 16.11352539 C25.89436523 14.79352539 25.56436523 13.47352539 25.22436523 12.11352539 C15.65436523 11.78352539 6.08436523 11.45352539 -3.77563477 11.11352539 C-3.77563477 0.15442609 -3.77563477 0.15442609 0 0 Z " fill="#1E326F" transform="translate(130.775634765625,229.886474609375)"/>
<path d="M0 0 C0.33 0.66 0.66 1.32 1 2 C1.33 1.34 1.66 0.68 2 0 C5.375 -0.8125 5.375 -0.8125 9 -1 C11.6479735 0.76531567 11.9769986 1.93099579 13 5 C14.32 5 15.64 5 17 5 C17 6.65 17 8.3 17 10 C12.05 10 7.1 10 2 10 C1.67 9.34 1.34 8.68 1 8 C0.34 8.66 -0.32 9.32 -1 10 C-4.5 10.25 -4.5 10.25 -8 10 C-10 8 -10 8 -10.1875 5 C-10 2 -10 2 -9 0 C-5.77493444 -1.26699004 -3.2878364 -0.97746487 0 0 Z M-5 3 C-5 3.99 -5 4.98 -5 6 C-4.34 6 -3.68 6 -3 6 C-3.33 5.01 -3.66 4.02 -4 3 C-4.33 3 -4.66 3 -5 3 Z " fill="#303030" transform="translate(420,287)"/>
<path d="M0 0 C6.93 0 13.86 0 21 0 C21.33 1.98 21.66 3.96 22 6 C22.99 6.33 23.98 6.66 25 7 C25 7.66 25 8.32 25 9 C21.42501484 10.19166172 18.51861586 10.1325072 14.75 10.125 C13.46609375 10.12757813 12.1821875 10.13015625 10.859375 10.1328125 C7.13358355 10.004597 3.67120054 9.59918558 0 9 C-1.125 6.75 -1.125 6.75 -2 4 C-1.34 2.68 -0.68 1.36 0 0 Z " fill="#152B76" transform="translate(212,264)"/>
<path d="M0 0 C0.99 0.33 1.98 0.66 3 1 C3 10.9 3 20.8 3 31 C0.69 31 -1.62 31 -4 31 C-4.08696177 27.06263877 -4.14037835 23.12552372 -4.1875 19.1875 C-4.21263672 18.06794922 -4.23777344 16.94839844 -4.26367188 15.79492188 C-4.27333984 14.72177734 -4.28300781 13.64863281 -4.29296875 12.54296875 C-4.3086792 11.55321045 -4.32438965 10.56345215 -4.34057617 9.54370117 C-3.94329202 6.57645849 -3.22807208 5.88556621 -1 4 C-0.28552357 1.89667109 -0.28552357 1.89667109 0 0 Z " fill="#01176A" transform="translate(351,241)"/>
<path d="M0 0 C1.02158203 0.0515625 2.04316406 0.103125 3.09570312 0.15625 C4.15080078 0.22070312 5.20589844 0.28515625 6.29296875 0.3515625 C7.90461914 0.43664062 7.90461914 0.43664062 9.54882812 0.5234375 C12.19342341 0.66448258 14.83700769 0.81585226 17.48046875 0.9765625 C17.81046875 2.9565625 18.14046875 4.9365625 18.48046875 6.9765625 C17.28502441 7.01414673 17.28502441 7.01414673 16.06542969 7.05249023 C12.45361653 7.16855039 8.84205773 7.29123181 5.23046875 7.4140625 C3.34908203 7.47303711 3.34908203 7.47303711 1.4296875 7.53320312 C0.22441406 7.57509766 -0.98085937 7.61699219 -2.22265625 7.66015625 C-3.33286133 7.69681396 -4.44306641 7.73347168 -5.58691406 7.77124023 C-8.04974974 7.94367154 -10.1643609 8.27251689 -12.51953125 8.9765625 C-12.51953125 7.9865625 -12.51953125 6.9965625 -12.51953125 5.9765625 C-11.19953125 5.6465625 -9.87953125 5.3165625 -8.51953125 4.9765625 C-9.17953125 3.9865625 -9.83953125 2.9965625 -10.51953125 1.9765625 C-6.79566081 0.24604063 -4.0878766 -0.22837299 0 0 Z " fill="#01186C" transform="translate(221.51953125,233.0234375)"/>
<path d="M0 0 C2.475 0.495 2.475 0.495 5 1 C5 4.3 5 7.6 5 11 C5.99 11 6.98 11 8 11 C8.03738281 10.37351562 8.07476562 9.74703125 8.11328125 9.1015625 C8.17902344 8.28429687 8.24476563 7.46703125 8.3125 6.625 C8.37050781 5.81289063 8.42851562 5.00078125 8.48828125 4.1640625 C9 2 9 2 12 0 C12.66 0.33 13.32 0.66 14 1 C14 5.95 14 10.9 14 16 C9.38 16 4.76 16 0 16 C0 10.72 0 5.44 0 0 Z " fill="#414141" transform="translate(199,281)"/>
<path d="M0 0 C3.125 0.1875 3.125 0.1875 6.125 2.1875 C6.3125 4.8125 6.3125 4.8125 6.125 7.1875 C6.785 7.5175 7.445 7.8475 8.125 8.1875 C8.125 7.5275 8.125 6.8675 8.125 6.1875 C8.785 6.5175 9.445 6.8475 10.125 7.1875 C8.5 13.9375 8.5 13.9375 5.125 16.1875 C2.40216095 16.50004378 -0.11942486 16.32083428 -2.875 16.1875 C-3.875 15.1875 -3.875 15.1875 -4.0078125 12.0625 C-4.00523438 10.78375 -4.00265625 9.505 -4 8.1875 C-4.00257812 6.90875 -4.00515625 5.63 -4.0078125 4.3125 C-3.83516132 0.25011922 -3.83516132 0.25011922 0 0 Z M1.125 10.1875 C2.125 12.1875 2.125 12.1875 2.125 12.1875 Z " fill="#303031" transform="translate(129.875,280.8125)"/>
<path d="M0 0 C2 0.8125 2 0.8125 3.25 2.375 C4.36841332 6.00984329 4.2418928 9.00268837 4 12.8125 C3.34 13.8025 2.68 14.7925 2 15.8125 C1.01 15.8125 0.02 15.8125 -1 15.8125 C-0.67 13.8325 -0.34 11.8525 0 9.8125 C-1.98 11.1325 -3.96 12.4525 -6 13.8125 C-6.33 13.4825 -6.66 13.1525 -7 12.8125 C-8.63256758 12.65535346 -10.27135338 12.56164586 -11.91015625 12.49609375 C-12.89951172 12.45419922 -13.88886719 12.41230469 -14.90820312 12.36914062 C-15.94912109 12.32982422 -16.99003906 12.29050781 -18.0625 12.25 C-19.10728516 12.20681641 -20.15207031 12.16363281 -21.22851562 12.11914062 C-23.81886884 12.01268775 -26.40932186 11.9106724 -29 11.8125 C-29 9.5025 -29 7.1925 -29 4.8125 C-28.67 4.8125 -28.34 4.8125 -28 4.8125 C-28 6.7925 -28 8.7725 -28 10.8125 C-21.4 10.8125 -14.8 10.8125 -8 10.8125 C-8 9.1625 -8 7.5125 -8 5.8125 C-8.66 5.1525 -9.32 4.4925 -10 3.8125 C-9.67 3.1525 -9.34 2.4925 -9 1.8125 C-7.34385343 1.43031233 -5.67542976 1.09854898 -4 0.8125 C-2 -0.1875 -2 -0.1875 0 0 Z " fill="#263778" transform="translate(166,252.1875)"/>
<path d="M0 0 C1.11310547 0.00451172 2.22621094 0.00902344 3.37304688 0.01367188 C6.10292101 0.02538807 8.83268174 0.04179301 11.5625 0.0625 C11.66664268 3.93530581 11.18239062 6.51898927 9.5625 10.0625 C8.9025 9.7325 8.2425 9.4025 7.5625 9.0625 C7.5625 7.4125 7.5625 5.7625 7.5625 4.0625 C3.81256521 4.00438227 0.06274648 3.96886407 -3.6875 3.9375 C-4.75097656 3.92074219 -5.81445312 3.90398437 -6.91015625 3.88671875 C-8.44736328 3.87705078 -8.44736328 3.87705078 -10.015625 3.8671875 C-10.95825195 3.85671387 -11.90087891 3.84624023 -12.87207031 3.83544922 C-15.53701941 4.07130787 -17.15613092 4.70588341 -19.4375 6.0625 C-18.7775 6.7225 -18.1175 7.3825 -17.4375 8.0625 C-21.09183764 9.28061255 -22.04380184 8.62882223 -25.4375 7.0625 C-26.0975 6.7325 -26.7575 6.4025 -27.4375 6.0625 C-26.2608992 5.23429528 -25.07045447 4.42575034 -23.875 3.625 C-23.21371094 3.17253906 -22.55242187 2.72007812 -21.87109375 2.25390625 C-15.22863527 -0.99801965 -7.20415505 -0.05558102 0 0 Z " fill="#273978" transform="translate(231.4375,229.9375)"/>
<path d="M0 0 C0 3.3 0 6.6 0 10 C-1.65 9.67 -3.3 9.34 -5 9 C-5 7.68 -5 6.36 -5 5 C-5.33 6.65 -5.66 8.3 -6 10 C-9.3 10 -12.6 10 -16 10 C-16 6.7 -16 3.4 -16 0 C-10.68833136 -1.32791716 -5.24118425 -1.74706142 0 0 Z " fill="#202020" transform="translate(230,287)"/>
<path d="M0 0 C0.99 0.33 1.98 0.66 3 1 C3 5.95 3 10.9 3 16 C1.35 15.67 -0.3 15.34 -2 15 C-2.33 15.33 -2.66 15.66 -3 16 C-4.66617115 16.04063832 -6.33388095 16.042721 -8 16 C-8.19627391 14.41773035 -8.38165538 12.83410729 -8.5625 11.25 C-8.66691406 10.36828125 -8.77132813 9.4865625 -8.87890625 8.578125 C-8.99456676 6.11567549 -8.73638695 4.33461936 -8 2 C-6.35 2 -4.7 2 -3 2 C-3 3.32 -3 4.64 -3 6 C-2.690625 5.195625 -2.38125 4.39125 -2.0625 3.5625 C-1 1 -1 1 0 0 Z " fill="#404140" transform="translate(406,281)"/>
<path d="M0 0 C1.65 0.33 3.3 0.66 5 1 C5.02685095 3.47923801 5.04676547 5.9581884 5.0625 8.4375 C5.07087891 9.14455078 5.07925781 9.85160156 5.08789062 10.58007812 C5.09653588 12.38693559 5.05220011 14.19387603 5 16 C3.41105928 17.58894072 1.75198576 17.16998411 -0.4375 17.1875 C-1.64212891 17.20876953 -1.64212891 17.20876953 -2.87109375 17.23046875 C-5 17 -5 17 -7 15 C-7.125 11.375 -7.125 11.375 -7 8 C-5.02 7.34 -3.04 6.68 -1 6 C-0.67 4.02 -0.34 2.04 0 0 Z M-2 10 C-2.33 10.99 -2.66 11.98 -3 13 C-2.01 12.67 -1.02 12.34 0 12 C-0.66 11.34 -1.32 10.68 -2 10 Z " fill="#303030" transform="translate(326,280)"/>
<path d="M0 0 C0.33 0 0.66 0 1 0 C1.1687634 4.28643735 1.32918968 8.57308482 1.48217773 12.86010742 C1.53527189 14.31592017 1.59057186 15.77165433 1.64819336 17.22729492 C1.73102362 19.32974298 1.80569592 21.43235378 1.87890625 23.53515625 C1.9260376 24.797229 1.97316895 26.05930176 2.02172852 27.35961914 C1.99999333 31.00111769 1.60030977 34.41229008 1 38 C3.64 38 6.28 38 9 38 C8.99476318 37.25314941 8.98952637 36.50629883 8.98413086 35.73681641 C8.96339599 32.36621943 8.95035101 28.99563586 8.9375 25.625 C8.92912109 24.449375 8.92074219 23.27375 8.91210938 22.0625 C8.90888672 20.94101563 8.90566406 19.81953125 8.90234375 18.6640625 C8.89710693 17.62717285 8.89187012 16.5902832 8.88647461 15.52197266 C9 13 9 13 10 11 C11.32 11 12.64 11 14 11 C13.67 10.01 13.34 9.02 13 8 C13.66 8 14.32 8 15 8 C17.29013653 11.4352048 17.17842973 12.985331 17 17 C16.34 17.33 15.68 17.66 15 18 C14.01 16.68 13.02 15.36 12 14 C11.67 22.25 11.34 30.5 11 39 C7.37 39 3.74 39 0 39 C0 26.13 0 13.26 0 0 Z " fill="#344276" transform="translate(277,234)"/>
<path d="M0 0 C3.34829705 2.20683215 5.74887487 4.13288596 7 8 C7.125 11.25 7.125 11.25 7 14 C6.67 13.01 6.34 12.02 6 11 C4.35 11.66 2.7 12.32 1 13 C1 13.66 1 14.32 1 15 C-0.32 14.67 -1.64 14.34 -3 14 C-2.34 13.34 -1.68 12.68 -1 12 C-1.3185177 9.89179203 -1.3185177 9.89179203 -2 8 C-4.31 8 -6.62 8 -9 8 C-8.4140625 1.84765625 -8.4140625 1.84765625 -8 0 C-5.0233079 -1.48834605 -3.18307201 -0.8113713 0 0 Z " fill="#4F5C8F" transform="translate(100,232)"/>
<path d="M0 0 C6.35714286 0.48901099 6.35714286 0.48901099 9.4375 2.9375 C11 5 11 5 11 7 C11.66 7 12.32 7 13 7 C16.94561785 10.8315277 20.41664129 15.13720713 23 20 C21.35 20 19.7 20 18 20 C18 18.68 18 17.36 18 16 C17.34 16 16.68 16 16 16 C16.33 17.98 16.66 19.96 17 22 C16.34 22 15.68 22 15 22 C15 23.65 15 25.3 15 27 C13 25.5 13 25.5 11 23 C10.74917205 20.92535525 10.81311721 18.98772446 10.91796875 16.90234375 C11.01108082 14.74303062 10.80495893 13.01239732 10 11 C9.34 10.67 8.68 10.34 8 10 C8.66 10 9.32 10 10 10 C9.525625 9.608125 9.05125 9.21625 8.5625 8.8125 C6.64820367 6.59191626 6.38733012 4.86624291 6 2 C3.03 1.505 3.03 1.505 0 1 C0 0.67 0 0.34 0 0 Z " fill="#172C75" transform="translate(282,230)"/>
<path d="M0 0 C0.9075 0.00257813 1.815 0.00515625 2.75 0.0078125 C4.11125 0.00394531 4.11125 0.00394531 5.5 0 C7.75 0.1328125 7.75 0.1328125 8.75 1.1328125 C8.83874135 4.23532451 8.86518455 7.3154937 8.84765625 10.41796875 C8.8462413 11.34878769 8.84482635 12.27960663 8.84336853 13.2386322 C8.83775172 16.22422441 8.8251964 19.20974279 8.8125 22.1953125 C8.80748716 24.21419163 8.80292388 26.23307193 8.79882812 28.25195312 C8.78777683 33.21226822 8.77050095 38.17252782 8.75 43.1328125 C8.42 43.1328125 8.09 43.1328125 7.75 43.1328125 C7.42 29.6028125 7.09 16.0728125 6.75 2.1328125 C3.78 2.1328125 0.81 2.1328125 -2.25 2.1328125 C-2.21970703 2.77605469 -2.18941406 3.41929687 -2.15820312 4.08203125 C-1.56976544 16.77417941 -1.0818176 29.42569764 -1.25 42.1328125 C0.07 42.1328125 1.39 42.1328125 2.75 42.1328125 C2.75 42.7928125 2.75 43.4528125 2.75 44.1328125 C0.77 43.8028125 -1.21 43.4728125 -3.25 43.1328125 C-3.27464574 37.16968084 -3.292834 31.20657855 -3.30493164 25.2434082 C-3.30997278 23.21312952 -3.31680557 21.18285448 -3.32543945 19.15258789 C-3.33751467 16.24103903 -3.34323034 13.329538 -3.34765625 10.41796875 C-3.35281754 9.5044313 -3.35797882 8.59089386 -3.36329651 7.64967346 C-3.36349168 5.47705823 -3.31211805 3.30453954 -3.25 1.1328125 C-2.25 0.1328125 -2.25 0.1328125 0 0 Z " fill="#626C96" transform="translate(258.25,229.8671875)"/>
<path d="M0 0 C1.32 0 2.64 0 4 0 C4 0.66 4 1.32 4 2 C3.34 2 2.68 2 2 2 C2 10.91 2 19.82 2 29 C11.57 29 21.14 29 31 29 C27.53003477 31.31331015 26.17994406 31.24631102 22.08984375 31.23046875 C20.93548828 31.22853516 19.78113281 31.22660156 18.59179688 31.22460938 C17.38587891 31.21236328 16.17996094 31.20011719 14.9375 31.1875 C13.72771484 31.18685547 12.51792969 31.18621094 11.27148438 31.18554688 C2.28063241 31.14031621 2.28063241 31.14031621 0 30 C0 20.1 0 10.2 0 0 Z " fill="#647097" transform="translate(127,243)"/>
<path d="M0 0 C0.66 0 1.32 0 2 0 C2.11604679 3.4372166 2.18719508 6.87393086 2.25 10.3125 C2.30027344 11.77719727 2.30027344 11.77719727 2.3515625 13.27148438 C2.36445312 14.20927734 2.37734375 15.14707031 2.390625 16.11328125 C2.41157227 16.97735596 2.43251953 17.84143066 2.45410156 18.73168945 C2 21 2 21 0.14746094 22.79370117 C-2.41961208 24.23570979 -4.10015529 24.24165373 -7 24 C-7 23.34 -7 22.68 -7 22 C-6.5155542 21.5464917 -6.0311084 21.0929834 -5.53198242 20.62573242 C-3.65475586 18.63362857 -3.58960111 17.68338966 -3.48828125 14.98828125 C-3.43510742 13.85229492 -3.43510742 13.85229492 -3.38085938 12.69335938 C-3.35830078 11.90767578 -3.33574219 11.12199219 -3.3125 10.3125 C-3.27833984 9.51521484 -3.24417969 8.71792969 -3.20898438 7.89648438 C-3.12661896 5.93148096 -3.06162933 3.96576304 -3 2 C-2.01 2 -1.02 2 0 2 C0 1.34 0 0.68 0 0 Z " fill="#475388" transform="translate(115,254)"/>
<path d="M0 0 C1.65 0 3.3 0 5 0 C5 0.66 5 1.32 5 2 C5.66 2 6.32 2 7 2 C7 1.34 7 0.68 7 0 C8.65 0 10.3 0 12 0 C12 0.99 12 1.98 12 3 C11.34 3 10.68 3 10 3 C10.061875 3.680625 10.12375 4.36125 10.1875 5.0625 C9.94131737 8.91936125 8.64197838 11.51079594 7 15 C5.35 15 3.7 15 2 15 C2 12.69 2 10.38 2 8 C1.34 8 0.68 8 0 8 C0 5.36 0 2.72 0 0 Z " fill="#373737" transform="translate(285,287)"/>
<path d="M0 0 C1.125 2.5 1.125 2.5 2 5 C4.04105639 5.88693303 4.04105639 5.88693303 6 6 C6 7.32 6 8.64 6 10 C5.195625 9.814375 4.39125 9.62875 3.5625 9.4375 C2.716875 9.293125 1.87125 9.14875 1 9 C0.67 9.33 0.34 9.66 0 10 C-2.67058851 10.14115161 -5.32432238 10.04247107 -8 10 C-9.23666047 6.42742531 -8.89093449 3.64473199 -8 0 C-5.01122021 -1.4943899 -3.14997454 -0.91874257 0 0 Z " fill="#181818" transform="translate(252,287)"/>
<path d="M0 0 C0.66 0.99 1.32 1.98 2 3 C1.34 3 0.68 3 0 3 C0 3.66 0 4.32 0 5 C2.9774696 5.8522653 5.67571776 6.14712372 8.76855469 6.20532227 C9.70922791 6.22526749 10.64990112 6.24521271 11.61907959 6.26576233 C12.62650208 6.28247482 13.63392456 6.29918732 14.671875 6.31640625 C16.22820648 6.3475779 16.22820648 6.3475779 17.815979 6.37937927 C21.12725258 6.44471408 24.43860482 6.50368517 27.75 6.5625 C29.99610185 6.60570049 32.24219578 6.64931527 34.48828125 6.69335938 C39.99210457 6.80037903 45.49600598 6.90217522 51 7 C51 7.33 51 7.66 51 8 C45.43304991 9.1777808 40.01085437 9.12760748 34.3515625 9.09765625 C33.33903412 9.0962413 32.32650574 9.09482635 31.28329468 9.09336853 C28.06383249 9.08779143 24.84444101 9.07524312 21.625 9.0625 C19.43619892 9.05748204 17.24739675 9.05291965 15.05859375 9.04882812 C9.70570523 9.0378295 4.35285767 9.0211142 -1 9 C-2.13583456 5.28272326 -1.66670026 3.52948291 0 0 Z " fill="#818AA6" transform="translate(379,265)"/>
<path d="M0 0 C6.1055471 -0.02464513 12.21106551 -0.04283371 18.31665039 -0.05493164 C20.39543156 -0.05997288 22.47420916 -0.06680574 24.55297852 -0.07543945 C27.53402586 -0.08751422 30.51502649 -0.09323024 33.49609375 -0.09765625 C34.89921059 -0.10539818 34.89921059 -0.10539818 36.33067322 -0.11329651 C37.19149002 -0.11337204 38.05230682 -0.11344757 38.93920898 -0.11352539 C40.08171364 -0.11685631 40.08171364 -0.11685631 41.24729919 -0.12025452 C43 0 43 0 44 1 C44.0979057 2.49738124 44.12974864 3.99942892 44.125 5.5 C44.12886719 6.72203125 44.12886719 6.72203125 44.1328125 7.96875 C44 10 44 10 43 11 C40.30345146 11.07319621 37.63308542 11.09242537 34.9375 11.0625 C33.79958008 11.05573242 33.79958008 11.05573242 32.63867188 11.04882812 C30.75908129 11.0370068 28.87953101 11.01907078 27 11 C27 10.67 27 10.34 27 10 C31.95 10 36.9 10 42 10 C41.505 6.535 41.505 6.535 41 3 C40.04222656 2.97494385 39.08445312 2.9498877 38.09765625 2.92407227 C34.51176755 2.82922028 30.92603789 2.72919627 27.34033203 2.62768555 C25.79447169 2.58462851 24.24857269 2.54293574 22.70263672 2.50268555 C20.46830639 2.44426697 18.23416556 2.38078733 16 2.31640625 C15.31945557 2.29969376 14.63891113 2.28298126 13.93774414 2.26576233 C9.23021652 2.12351806 4.65965509 1.63933744 0 1 C0 0.67 0 0.34 0 0 Z " fill="#4C598D" transform="translate(328,230)"/>
<path d="M0 0 C2.60387619 4.21374155 2.69049978 8.87939754 3.12304688 13.6875 C3.31873356 15.47159839 3.6515801 17.2393456 4 19 C4.99 19.66 5.98 20.32 7 21 C6.67 21.33 6.34 21.66 6 22 C2.5625 21.75 2.5625 21.75 -1 21 C-3.40975706 17.38536441 -3.33239432 14.6778074 -3.3125 10.5 C-3.33666992 9.48486328 -3.33666992 9.48486328 -3.36132812 8.44921875 C-3.36623416 3.47450389 -3.36623416 3.47450389 -1.48046875 1.03125 C-0.74763672 0.52078125 -0.74763672 0.52078125 0 0 Z " fill="#162665" transform="translate(76,256)"/>
<path d="M0 0 C1.9375 0.375 1.9375 0.375 4 1 C4.33 1.66 4.66 2.32 5 3 C5.33 2.34 5.66 1.68 6 1 C9.81984796 0.22188282 12.26840331 -0.24386556 16 1 C15 3 15 3 14 4 C13.63239269 6.32817964 13.29758419 8.6618385 13 11 C12.67 11 12.34 11 12 11 C12 9.02 12 7.04 12 5 C11.34 5 10.68 5 10 5 C10 6.98 10 8.96 10 11 C6 11 6 11 4.515625 9.6875 C3.34375 8.125 2.171875 6.5625 1 5 C0.01 5.33 -0.98 5.66 -2 6 C-1.34 4.02 -0.68 2.04 0 0 Z " fill="#0D0D0D" transform="translate(164,286)"/>
<path d="M0 0 C1.32102974 0.0001133 1.32102974 0.0001133 2.66874695 0.00022888 C3.61570938 0.00539017 4.56267181 0.01055145 5.53833008 0.01586914 C6.51071121 0.01728409 7.48309235 0.01869904 8.48493958 0.02015686 C11.59261137 0.02575722 14.70021129 0.03830977 17.80786133 0.05102539 C19.91398008 0.05604034 22.02009996 0.06060326 24.1262207 0.06469727 C29.29096197 0.07572677 34.45564946 0.09299164 39.62036133 0.11352539 C39.62036133 1.10352539 39.62036133 2.09352539 39.62036133 3.11352539 C38.63036133 3.44352539 37.64036133 3.77352539 36.62036133 4.11352539 C36.62036133 3.45352539 36.62036133 2.79352539 36.62036133 2.11352539 C35.39406006 2.15429199 34.16775879 2.19505859 32.90429688 2.23706055 C28.35917446 2.38541121 23.81373244 2.52009723 19.26806641 2.65063477 C17.29985295 2.70907244 15.33174623 2.77122715 13.36376953 2.8371582 C10.53673738 2.93122633 7.70959224 3.01196723 4.88208008 3.09008789 C4.00073898 3.12228424 3.11939789 3.15448059 2.21134949 3.18765259 C1.39072525 3.2078244 0.57010101 3.22799622 -0.27539062 3.2487793 C-0.99708939 3.27098541 -1.71878815 3.29319153 -2.46235657 3.31607056 C-4.37963867 3.11352539 -4.37963867 3.11352539 -7.37963867 1.11352539 C-4.57426564 0.17840105 -2.89798503 -0.00830368 0 0 Z " fill="#3F4E83" transform="translate(391.379638671875,229.886474609375)"/>
<path d="M0 0 C0 3.3 0 6.6 0 10 C-6.93359375 10.09765625 -6.93359375 10.09765625 -9 10 C-10 9 -10 9 -10.25 5.625 C-10 2 -10 2 -8.9375 0 C-5.86664787 -1.58495594 -3.27813225 -0.68036707 0 0 Z M-6 3 C-5.67 3.99 -5.34 4.98 -5 6 C-5 5.01 -5 4.02 -5 3 C-5.33 3 -5.66 3 -6 3 Z " fill="#1A1B1A" transform="translate(396,287)"/>
<path d="M0 0 C5.02804873 1.67601624 7.67271706 5.34543412 10 10 C10 11.32 10 12.64 10 14 C6.7 13.67 3.4 13.34 0 13 C-1.125 3.375 -1.125 3.375 0 0 Z " fill="#02196B" transform="translate(378,236)"/>
<path d="M0 0 C1.65 0 3.3 0 5 0 C5.33 0.66 5.66 1.32 6 2 C6.33 1.34 6.66 0.68 7 0 C8.65 0 10.3 0 12 0 C12 4.26804999 11.38932765 6.41600853 9 10 C5.875 10.1875 5.875 10.1875 3 10 C0.96564469 6.27034861 0 4.33094958 0 0 Z " fill="#363636" transform="translate(374,287)"/>
<path d="M0 0 C2.475 0.99 2.475 0.99 5 2 C5.625 5.375 5.625 5.375 6 9 C4 11 4 11 0.4375 11.1875 C-3 11 -3 11 -4 10 C-4.3125 7.1875 -4.3125 7.1875 -4 4 C-2 1.625 -2 1.625 0 0 Z " fill="#181818" transform="translate(142,286)"/>
<path d="M0 0 C0.33 1.32 0.66 2.64 1 4 C10.57 4 20.14 4 30 4 C30.33 5.32 30.66 6.64 31 8 C31.45375 7.54625 31.9075 7.0925 32.375 6.625 C33.58333333 5.41666667 34.79166667 4.20833333 36 3 C36.66 3.66 37.32 4.32 38 5 C38.33 3.35 38.66 1.7 39 0 C41.83022097 3.99560608 40.76210446 7.42737323 40 12 C39.34 11.34 38.68 10.68 38 10 C37.01 10.33 36.02 10.66 35 11 C32.3125 10.5625 32.3125 10.5625 30 10 C29.67 8.68 29.34 7.36 29 6 C19.43 5.67 9.86 5.34 0 5 C0 3.35 0 1.7 0 0 Z " fill="#33427C" transform="translate(127,236)"/>
<path d="M0 0 C0.33 0.33 0.66 0.66 1 1 C0.69781399 6.23789086 -0.20326209 9.31174032 -4 13 C-6.25 13.8125 -6.25 13.8125 -8 14 C-6.33333333 10.66666667 -4.66666667 7.33333333 -3 4 C-4.093125 4.45375 -5.18625 4.9075 -6.3125 5.375 C-6.92738281 5.63023437 -7.54226562 5.88546875 -8.17578125 6.1484375 C-10.26533932 7.06806692 -10.26533932 7.06806692 -13 9 C-12.4568634 5.19804378 -10.84334437 3.49869657 -8 1 C-5.26752652 -0.36623674 -3.01801098 -0.128426 0 0 Z " fill="#E2A57B" transform="translate(195,215)"/>
<path d="M0 0 C5.75 1.75 5.75 1.75 8 4 C7.34 4 6.68 4 6 4 C6.020625 4.969375 6.04125 5.93875 6.0625 6.9375 C6 10 6 10 5 11 C2.66702567 11.04092937 0.33294775 11.04241723 -2 11 C-3.25 8.875 -3.25 8.875 -4 6 C-2.125 2.6875 -2.125 2.6875 0 0 Z " fill="#1B1B1B" transform="translate(279,286)"/>
<path d="M0 0 C0.33 0.66 0.66 1.32 1 2 C0.00390625 3.9453125 0.00390625 3.9453125 -1.4375 6.125 C-1.91058594 6.84945312 -2.38367188 7.57390625 -2.87109375 8.3203125 C-3.24363281 8.87460938 -3.61617187 9.42890625 -4 10 C1.56717533 7.64543677 1.56717533 7.64543677 7 5 C6.01387981 8.55003269 5.08032022 9.93395893 2.1875 12.3125 C-0.98870683 13.99402126 -2.49556689 14.58407218 -6 14 C-6.66 13.34 -7.32 12.68 -8 12 C-7.86230302 7.04290889 -5.23211811 4.46861456 -2 1 C-1.34 0.67 -0.68 0.34 0 0 Z " fill="#E3A687" transform="translate(183,215)"/>
<path d="M0 0 C-0.1875 1.8125 -0.1875 1.8125 -1 4 C-1.78375 4.433125 -2.5675 4.86625 -3.375 5.3125 C-7.03361305 7.66446553 -7.55119513 9.95859695 -9 14 C-8.34 14.33 -7.68 14.66 -7 15 C-6.375 17.0625 -6.375 17.0625 -6 19 C-6.99 18.34 -7.98 17.68 -9 17 C-9 16.34 -9 15.68 -9 15 C-9.99 15 -10.98 15 -12 15 C-12 15.66 -12 16.32 -12 17 C-12.66 17 -13.32 17 -14 17 C-14.75 14.875 -14.75 14.875 -15 12 C-13.1875 8.6875 -13.1875 8.6875 -11 6 C-10.34 6 -9.68 6 -9 6 C-9 5.34 -9 4.68 -9 4 C-7.68 4 -6.36 4 -5 4 C-5 3.34 -5 2.68 -5 2 C-2 0 -2 0 0 0 Z " fill="#2B3A7A" transform="translate(106,243)"/>
<path d="M0 0 C0.33 0 0.66 0 1 0 C1 5.28 1 10.56 1 16 C1.99 16.33 2.98 16.66 4 17 C4 17.66 4 18.32 4 19 C3.34 19.33 2.68 19.66 2 20 C1.68758545 22.71446979 1.48663408 25.33909361 1.375 28.0625 C1.33632812 28.82111328 1.29765625 29.57972656 1.2578125 30.36132812 C1.16326438 32.24047195 1.08053244 34.12020336 1 36 C0.67 36 0.34 36 0 36 C0 30.39 0 24.78 0 19 C-0.66 19 -1.32 19 -2 19 C-2 19.66 -2 20.32 -2 21 C-2.66 21 -3.32 21 -4 21 C-4 17.53306252 -3.79998832 14.19986566 -3.5 10.75 C-3.4071875 9.67234375 -3.314375 8.5946875 -3.21875 7.484375 C-3.1465625 6.66453125 -3.074375 5.8446875 -3 5 C-2.34 5 -1.68 5 -1 5 C-0.67 3.35 -0.34 1.7 0 0 Z " fill="#6570A7" transform="translate(117,235)"/>
<path d="M0 0 C0 2.97 0 5.94 0 9 C-2.97 8.67 -5.94 8.34 -9 8 C-9 5.03 -9 2.06 -9 -1 C-4.80410573 -2.16552619 -4.17908064 -2.08954032 0 0 Z " fill="#1D1D1C" transform="translate(318,288)"/>
<path d="M0 0 C1.32 0 2.64 0 4 0 C4 5.28 4 10.56 4 16 C2.35 16 0.7 16 -1 16 C-1.02685095 13.52076199 -1.04676547 11.0418116 -1.0625 8.5625 C-1.07506836 7.50192383 -1.07506836 7.50192383 -1.08789062 6.41992188 C-1.09653588 4.61306441 -1.05220011 2.80612397 -1 1 C-0.67 0.67 -0.34 0.34 0 0 Z " fill="#454545" transform="translate(337,281)"/>
<path d="M0 0 C0.33 0 0.66 0 1 0 C1 3.63 1 7.26 1 11 C1.66 11 2.32 11 3 11 C3.33 11.66 3.66 12.32 4 13 C4.99 12.01 5.98 11.02 7 10 C8.32 10.66 9.64 11.32 11 12 C10.34 12 9.68 12 9 12 C9.33 12.99 9.66 13.98 10 15 C11.65 15.33 13.3 15.66 15 16 C13 18 13 18 9.8125 18.5 C5.48877868 17.93295458 3.4660749 16.99373525 0.31640625 14.0625 C-2.21544594 10.09568114 -1.67623679 5.51080677 -1 1 C-0.67 0.67 -0.34 0.34 0 0 Z " fill="#37467F" transform="translate(86,257)"/>
<path d="M0 0 C1.875 0.1875 1.875 0.1875 4 1 C5.25 3.5625 5.25 3.5625 6 6 C7.32 6 8.64 6 10 6 C10 7.65 10 9.3 10 11 C6.7 11 3.4 11 0 11 C-1.125 3.375 -1.125 3.375 0 0 Z " fill="#343435" transform="translate(427,286)"/>
<path d="M0 0 C2.35448165 2.55068845 2.98327924 3.71017358 3.1875 7.25 C3.125625 8.1575 3.06375 9.065 3 10 C2.01 10 1.02 10 0 10 C-0.66 13.96 -1.32 17.92 -2 22 C-2.66 22 -3.32 22 -4 22 C-4.42691034 13.55666209 -4.63421641 7.24096313 0 0 Z " fill="#27346F" transform="translate(203,237)"/>
<path d="M0 0 C0.99 0.33 1.98 0.66 3 1 C3 5.95 3 10.9 3 16 C1.68 16 0.36 16 -1 16 C-0.98839844 15.32453125 -0.97679687 14.6490625 -0.96484375 13.953125 C-0.95582031 13.06109375 -0.94679688 12.1690625 -0.9375 11.25 C-0.92009766 9.92742187 -0.92009766 9.92742187 -0.90234375 8.578125 C-0.89642179 6.03189719 -0.89642179 6.03189719 -1.62890625 3.796875 C-1.75136719 3.20390625 -1.87382812 2.6109375 -2 2 C-1.34 1.34 -0.68 0.68 0 0 Z " fill="#121212" transform="translate(406,281)"/>
<path d="M0 0 C0.99 0.66 1.98 1.32 3 2 C2.67 6.62 2.34 11.24 2 16 C0.68 16 -0.64 16 -2 16 C-2 11.05 -2 6.1 -2 1 C-1.34 0.67 -0.68 0.34 0 0 Z " fill="#0E0D0E" transform="translate(233,281)"/>
<path d="M0 0 C0.66 0 1.32 0 2 0 C2 1.32 2 2.64 2 4 C3.65 4 5.3 4 7 4 C6.74438677 6.3431213 6.40729228 8.67843403 6 11 C5.01 11.495 5.01 11.495 4 12 C3.67 12.66 3.34 13.32 3 14 C1.0625 13.25 1.0625 13.25 -1 12 C-1.8125 10 -1.8125 10 -2 8 C-1.67 7.34 -1.34 6.68 -1 6 C-0.34 6 0.32 6 1 6 C0.67 4.02 0.34 2.04 0 0 Z " fill="#031869" transform="translate(298,246)"/>
<path d="M0 0 C2.49383861 1.87037895 2.97198563 2.82304254 3.46875 5.9609375 C3.55181906 15.03623268 3.55181906 15.03623268 1.875 17.96484375 C0.5 19.3125 0.5 19.3125 -2 21 C-2.33 20.01 -2.66 19.02 -3 18 C-2.01 18 -1.02 18 0 18 C-0.08378906 17.03578125 -0.16757812 16.0715625 -0.25390625 15.078125 C-0.35574219 13.81484375 -0.45757812 12.5515625 -0.5625 11.25 C-0.66691406 9.99703125 -0.77132813 8.7440625 -0.87890625 7.453125 C-0.97876723 4.60547636 -0.90584295 2.65713933 0 0 Z " fill="#303E71" transform="translate(434,250)"/>
<path d="M0 0 C3.64581687 -0.02887512 7.29160463 -0.04675585 10.9375 -0.0625 C12.49887695 -0.07506836 12.49887695 -0.07506836 14.09179688 -0.08789062 C15.57583008 -0.09272461 15.57583008 -0.09272461 17.08984375 -0.09765625 C18.46450806 -0.10551147 18.46450806 -0.10551147 19.86694336 -0.11352539 C22 0 22 0 23 1 C23.07325168 3.86267567 23.09238205 6.700719 23.0625 9.5625 C23.05798828 10.36880859 23.05347656 11.17511719 23.04882812 12.00585938 C23.03700518 14.00393756 23.01906914 16.00197783 23 18 C22.34 18 21.68 18 21 18 C20.95101562 16.92878906 20.90203125 15.85757812 20.8515625 14.75390625 C20.77654706 13.35674361 20.7009987 11.9596095 20.625 10.5625 C20.5940625 9.85544922 20.563125 9.14839844 20.53125 8.41992188 C20.42719371 6.60760812 20.22080108 4.80182012 20 3 C17.76352369 1.88176185 16.35108471 1.80603939 13.8671875 1.68359375 C13.06152344 1.64169922 12.25585938 1.59980469 11.42578125 1.55664062 C10.58402344 1.51732422 9.74226562 1.47800781 8.875 1.4375 C8.02550781 1.39431641 7.17601562 1.35113281 6.30078125 1.30664062 C4.20071777 1.20045764 2.10038052 1.09971503 0 1 C0 0.67 0 0.34 0 0 Z " fill="#69769C" transform="translate(222,247)"/>
<path d="M0 0 C0.99 0.33 1.98 0.66 3 1 C3 5.62 3 10.24 3 15 C1.68 15 0.36 15 -1 15 C-1.22134176 12.87631556 -1.42670007 10.75095976 -1.625 8.625 C-1.74101562 7.44164062 -1.85703125 6.25828125 -1.9765625 5.0390625 C-1.98429688 4.03617187 -1.99203125 3.03328125 -2 2 C-1.34 1.34 -0.68 0.68 0 0 Z " fill="#2C2C2B" transform="translate(210,281)"/>
<path d="M0 0 C0.66 0 1.32 0 2 0 C2.107834 2.93847653 2.18721916 5.87301151 2.25 8.8125 C2.28351563 9.64587891 2.31703125 10.47925781 2.3515625 11.33789062 C2.38832251 13.62620111 2.38495793 15.74321261 2 18 C-0.015625 20.07421875 -0.015625 20.07421875 -2 21 C-1.86142159 17.87463363 -1.71290431 14.74981783 -1.5625 11.625 C-1.52318359 10.73554688 -1.48386719 9.84609375 -1.44335938 8.9296875 C-1.40146484 8.07890625 -1.35957031 7.228125 -1.31640625 6.3515625 C-1.27974854 5.56604004 -1.24309082 4.78051758 -1.20532227 3.97119141 C-1 2 -1 2 0 0 Z " fill="#04195D" transform="translate(115,254)"/>
<path d="M0 0 C0.33 0 0.66 0 1 0 C1.04940929 5.49925421 1.08572395 10.99837942 1.10986328 16.49780273 C1.11992567 18.36891938 1.13357691 20.24002028 1.15087891 22.11108398 C1.17511684 24.79935591 1.18648063 27.48742006 1.1953125 30.17578125 C1.20563507 31.01337479 1.21595764 31.85096832 1.22659302 32.71394348 C1.22774341 38.65838488 1.22774341 38.65838488 -1 42 C-1.99 41.67 -2.98 41.34 -4 41 C-3.67 40.01 -3.34 39.02 -3 38 C-2.34 38 -1.68 38 -1 38 C-0.67 25.46 -0.34 12.92 0 0 Z " fill="#16204F" transform="translate(320,231)"/>
<path d="M0 0 C1.98 0.495 1.98 0.495 4 1 C3.67 2.32 3.34 3.64 3 5 C4.65 5.33 6.3 5.66 8 6 C7.67 7.32 7.34 8.64 7 10 C4.125 10.125 4.125 10.125 1 10 C0.34 9.34 -0.32 8.68 -1 8 C-0.96712417 5.27130593 -0.43602229 2.7033382 0 0 Z " fill="#212121" transform="translate(160,287)"/>
<path d="M0 0 C0.66 0 1.32 0 2 0 C3.20272819 2.40545638 3.10071472 3.94996953 3.0625 6.625 C3.05347656 7.44226563 3.04445313 8.25953125 3.03515625 9.1015625 C3.02355469 9.72804688 3.01195313 10.35453125 3 11 C3.66 11 4.32 11 5 11 C4 13 4 13 1 15 C1 14.01 1 13.02 1 12 C0.34 12 -0.32 12 -1 12 C-1.02687279 10.18757948 -1.04633715 8.37504767 -1.0625 6.5625 C-1.07410156 5.55316406 -1.08570312 4.54382813 -1.09765625 3.50390625 C-1 1 -1 1 0 0 Z " fill="#031763" transform="translate(88,256)"/>
<path d="M0 0 C4.55555556 1.55555556 4.55555556 1.55555556 6 3 C5.82364548 5.69082872 5.38164079 8.32851446 5 11 C3.68 11 2.36 11 1 11 C0.92652344 10.04287109 0.92652344 10.04287109 0.8515625 9.06640625 C0.77679688 8.24011719 0.70203125 7.41382813 0.625 6.5625 C0.55539062 5.73878906 0.48578125 4.91507812 0.4140625 4.06640625 C0.27742188 3.38449219 0.14078125 2.70257813 0 2 C-0.66 1.67 -1.32 1.34 -2 1 C-1.34 0.67 -0.68 0.34 0 0 Z " fill="#4A4A49" transform="translate(358,286)"/>
<path d="M0 0 C-0.45375 0.4125 -0.9075 0.825 -1.375 1.25 C-3.10274711 2.91951012 -3.10274711 2.91951012 -3.9375 5.125 C-5 7 -5 7 -7.125 7.75 C-8.053125 7.87375 -8.053125 7.87375 -9 8 C-9.625 5.6875 -9.625 5.6875 -10 3 C-7.00991906 -1.48512141 -4.87831759 -1.18661779 0 0 Z " fill="#505C89" transform="translate(83,229)"/>
<path d="M0 0 C0.66 0 1.32 0 2 0 C4.29013653 3.4352048 4.17842973 4.985331 4 9 C3.01 9.495 3.01 9.495 2 10 C1.01 8.68 0.02 7.36 -1 6 C-1.33 9.96 -1.66 13.92 -2 18 C-2.33 18 -2.66 18 -3 18 C-3 13.05 -3 8.1 -3 3 C-1.68 3 -0.36 3 1 3 C0.67 2.01 0.34 1.02 0 0 Z " fill="#56659F" transform="translate(290,242)"/>
<path d="M0 0 C0.66 0 1.32 0 2 0 C3.49297212 2.98594424 3.11755228 5.70853624 3 9 C2.67 9.66 2.34 10.32 2 11 C0.68 10.67 -0.64 10.34 -2 10 C-2.1953125 3.9453125 -2.1953125 3.9453125 -2 2 C-1.34 1.34 -0.68 0.68 0 0 Z " fill="#05185D" transform="translate(88,239)"/>
<path d="M0 0 C2.31 0.33 4.62 0.66 7 1 C7.33 1.99 7.66 2.98 8 4 C7.67 4.66 7.34 5.32 7 6 C5.02 6 3.04 6 1 6 C1 6.66 1 7.32 1 8 C0.34 8 -0.32 8 -1 8 C-0.67 5.36 -0.34 2.72 0 0 Z " fill="#091965" transform="translate(92,232)"/>
<path d="M0 0 C3 0.25 3 0.25 5 2.25 C2.36 2.91 -0.28 3.57 -3 4.25 C-3.33 10.85 -3.66 17.45 -4 24.25 C-4.33 24.25 -4.66 24.25 -5 24.25 C-5.05787784 20.62506666 -5.0935542 17.00025143 -5.125 13.375 C-5.14175781 12.34246094 -5.15851563 11.30992187 -5.17578125 10.24609375 C-5.18222656 9.25996094 -5.18867188 8.27382812 -5.1953125 7.2578125 C-5.20578613 6.34660645 -5.21625977 5.43540039 -5.22705078 4.49658203 C-4.85357473 0.80117705 -3.5684997 0.29737497 0 0 Z " fill="#071861" transform="translate(283,230.75)"/>
<path d="M0 0 C2.475 0.495 2.475 0.495 5 1 C4.67 3.97 4.34 6.94 4 10 C2.68 9.67 1.36 9.34 0 9 C0 6.03 0 3.06 0 0 Z " fill="#0E0E0E" transform="translate(353,287)"/>
<path d="M0 0 C1.9375 0.375 1.9375 0.375 4 1 C4.33 1.66 4.66 2.32 5 3 C5.66 2.34 6.32 1.68 7 1 C7 4.3 7 7.6 7 11 C6.236875 10.175 5.47375 9.35 4.6875 8.5 C2.24565858 5.65944803 2.24565858 5.65944803 -1 6 C-1.33 5.34 -1.66 4.68 -2 4 C-1.0625 1.875 -1.0625 1.875 0 0 Z " fill="#4E4E4E" transform="translate(164,286)"/>
<path d="M0 0 C1.20849609 0.00644531 2.41699219 0.01289063 3.66210938 0.01953125 C5.55606445 0.04466797 5.55606445 0.04466797 7.48828125 0.0703125 C8.76251953 0.07933594 10.03675781 0.08835938 11.34960938 0.09765625 C14.50018752 0.12125609 17.65039108 0.15418056 20.80078125 0.1953125 C20.80078125 0.5253125 20.80078125 0.8553125 20.80078125 1.1953125 C20.1051709 1.2046582 19.40956055 1.21400391 18.69287109 1.22363281 C15.51980625 1.27754796 12.34818215 1.36115423 9.17578125 1.4453125 C8.08136719 1.45949219 6.98695313 1.47367188 5.859375 1.48828125 C-0.40791332 1.67819908 -4.41373524 1.99751994 -9.19921875 6.1953125 C-9.19921875 4.8753125 -9.19921875 3.5553125 -9.19921875 2.1953125 C-5.6590865 -0.16477567 -4.1879992 -0.03932394 0 0 Z " fill="#374571" transform="translate(219.19921875,239.8046875)"/>
<path d="M0 0 C0.66 0.33 1.32 0.66 2 1 C1.58923571 6.23724464 0.81714069 9.29192047 -3 13 C-5.25 13.8125 -5.25 13.8125 -7 14 C-5.50079488 10.88626628 -3.91847864 7.87771795 -2 5 C-1.34 5 -0.68 5 0 5 C0 3.35 0 1.7 0 0 Z " fill="#D9AA8F" transform="translate(194,215)"/>
<path d="M0 0 C0.99 0 1.98 0 3 0 C2.67 2.31 2.34 4.62 2 7 C2.66 7.33 3.32 7.66 4 8 C3.01 8 2.02 8 1 8 C1 7.34 1 6.68 1 6 C-2.31460705 7.70892499 -2.31460705 7.70892499 -2.6875 11.125 C-2.790625 12.07375 -2.89375 13.0225 -3 14 C-3.33 14 -3.66 14 -4 14 C-4.05422947 12.5629191 -4.09289723 11.12524538 -4.125 9.6875 C-4.14820312 8.88699219 -4.17140625 8.08648437 -4.1953125 7.26171875 C-4 5 -4 5 -2 2 C-1.34 2 -0.68 2 0 2 C0 1.34 0 0.68 0 0 Z " fill="#425084" transform="translate(89,233)"/>
<path d="M0 0 C3.63 0 7.26 0 11 0 C10.67 1.65 10.34 3.3 10 5 C9.67 4.34 9.34 3.68 9 3 C6.69 3 4.38 3 2 3 C2 4.65 2 6.3 2 8 C1.67 8 1.34 8 1 8 C0.67 5.36 0.34 2.72 0 0 Z " fill="#2D3870" transform="translate(179,230)"/>
<path d="M0 0 C0.33 0 0.66 0 1 0 C1 4.62 1 9.24 1 14 C0.34 12.68 -0.32 11.36 -1 10 C-1.66 10.99 -2.32 11.98 -3 13 C-3.33 9.7 -3.66 6.4 -4 3 C-2.68 3.33 -1.36 3.66 0 4 C0 2.68 0 1.36 0 0 Z " fill="#041756" transform="translate(77,233)"/>
<path d="M0 0 C1.65 0 3.3 0 5 0 C4.34 3.3 3.68 6.6 3 10 C2.01 10 1.02 10 0 10 C0 6.7 0 3.4 0 0 Z " fill="#0E0D0D" transform="translate(423,287)"/>
<path d="M0 0 C0.33 0.66 0.66 1.32 1 2 C0.67 2.66 0.34 3.32 0 4 C-0.66 4 -1.32 4 -2 4 C-2.061875 4.61875 -2.12375 5.2375 -2.1875 5.875 C-3 8 -3 8 -5.5625 9.25 C-6.366875 9.4975 -7.17125 9.745 -8 10 C-5.66153846 3.47692308 -5.66153846 3.47692308 -2.3125 1.0625 C-1.549375 0.711875 -0.78625 0.36125 0 0 Z " fill="#46568C" transform="translate(105,246)"/>
<path d="M0 0 C4.90733591 4.74903475 4.90733591 4.74903475 5.25 9.375 C4.99195908 13.11659328 4.53752812 14.35674154 2 17 C2 15.35 2 13.7 2 12 C2.66 12 3.32 12 4 12 C4 10.35 4 8.7 4 7 C3.01 6.67 2.02 6.34 1 6 C1 5.34 1 4.68 1 4 C0.34 3.67 -0.32 3.34 -1 3 C-0.67 2.01 -0.34 1.02 0 0 Z " fill="#7980A9" transform="translate(102,254)"/>
<path d="M0 0 C4.7517398 0.43197635 6.92000054 1.32769295 10 5 C4.70769231 9.06153846 4.70769231 9.06153846 1.125 8.75 C0.42375 8.5025 -0.2775 8.255 -1 8 C-1 7.67 -1 7.34 -1 7 C0.98 7 2.96 7 5 7 C5 5.35 5 3.7 5 2 C3.35 1.67 1.7 1.34 0 1 C0 0.67 0 0.34 0 0 Z " fill="#53628D" transform="translate(94,231)"/>
<path d="M0 0 C0.99 0.66 1.98 1.32 3 2 C2.625 3.9375 2.625 3.9375 2 6 C1.01 6.495 1.01 6.495 0 7 C-0.40729228 9.32156597 -0.74438677 11.6568787 -1 14 C-1.33 14 -1.66 14 -2 14 C-2 9.71 -2 5.42 -2 1 C-1.34 0.67 -0.68 0.34 0 0 Z " fill="#656467" transform="translate(233,281)"/>
<path d="M0 0 C2.0625 0.4375 2.0625 0.4375 4 1 C4 1.99 4 2.98 4 4 C5.5778125 3.9690625 5.5778125 3.9690625 7.1875 3.9375 C10.32704904 3.98896802 12.96883396 4.26517187 16 5 C16 5.33 16 5.66 16 6 C13.53901884 5.94012211 11.08421588 5.85321526 8.625 5.75 C7.92632812 5.73582031 7.22765625 5.72164063 6.5078125 5.70703125 C4.4765625 5.609375 4.4765625 5.609375 1 5 C-0.4765625 2.953125 -0.4765625 2.953125 -1 1 C-0.67 0.67 -0.34 0.34 0 0 Z " fill="#061962" transform="translate(211,267)"/>
<path d="M0 0 C2.35448165 2.55068845 2.98327924 3.71017358 3.1875 7.25 C3.125625 8.1575 3.06375 9.065 3 10 C1.68 10 0.36 10 -1 10 C-2.1875 7.8125 -2.1875 7.8125 -3 5 C-1.625 2.1875 -1.625 2.1875 0 0 Z " fill="#27397D" transform="translate(203,237)"/>
<path d="M0 0 C6.35714286 0.48901099 6.35714286 0.48901099 9.4375 2.9375 C11 5 11 5 11 7 C11.66 7 12.32 7 13 7 C12.67 7.66 12.34 8.32 12 9 C9.5625 8.3125 9.5625 8.3125 7 7 C6.1875 4.375 6.1875 4.375 6 2 C3.03 1.505 3.03 1.505 0 1 C0 0.67 0 0.34 0 0 Z " fill="#48548B" transform="translate(282,230)"/>
<path d="M0 0 C0.99 1.485 0.99 1.485 2 3 C3.32 3 4.64 3 6 3 C6 4.65 6 6.3 6 8 C1.125 7.125 1.125 7.125 0 6 C-0.04080783 4.00041636 -0.04254356 1.99954746 0 0 Z " fill="#4D4D4D" transform="translate(431,289)"/>
<path d="M0 0 C0.66 0.99 1.32 1.98 2 3 C1.34 3 0.68 3 0 3 C0 3.66 0 4.32 0 5 C2.475 5.99 2.475 5.99 5 7 C5 7.66 5 8.32 5 9 C3.02 9 1.04 9 -1 9 C-2.0326802 6.21176345 -2.04509293 5.1322726 -1.0625 2.25 C-0.711875 1.5075 -0.36125 0.765 0 0 Z " fill="#5A668F" transform="translate(379,265)"/>
<path d="M0 0 C1.65 0.33 3.3 0.66 5 1 C4 4 4 4 2 7 C0.68 6.34 -0.64 5.68 -2 5 C-1.34 3.35 -0.68 1.7 0 0 Z " fill="#0D216F" transform="translate(299,253)"/>
<path d="M0 0 C0.66 0.99 1.32 1.98 2 3 C4.05925139 3.72382467 4.05925139 3.72382467 6 4 C6 5.32 6 6.64 6 8 C4.35 7.67 2.7 7.34 1 7 C0.34 5.02 -0.32 3.04 -1 1 C-0.67 0.67 -0.34 0.34 0 0 Z " fill="#525252" transform="translate(252,289)"/>
<path d="M0 0 C0.33 0 0.66 0 1 0 C1 4.62 1 9.24 1 14 C-2 10 -2 10 -1.75 6.4375 C-1 3 -1 3 0 0 Z " fill="#051458" transform="translate(77,260)"/>
<path d="M0 0 C1.20628008 2.33214148 2.1654738 4.49642139 3 7 C3.99 6.67 4.98 6.34 6 6 C6 6.66 6 7.32 6 8 C2.25 9.125 2.25 9.125 0 8 C0 8.99 0 9.98 0 11 C-0.99 10.67 -1.98 10.34 -3 10 C-2.34 9.67 -1.68 9.34 -1 9 C-0.53348793 6.87423218 -0.53348793 6.87423218 -0.375 4.4375 C-0.30023438 3.61121094 -0.22546875 2.78492188 -0.1484375 1.93359375 C-0.09945312 1.29550781 -0.05046875 0.65742188 0 0 Z " fill="#546092" transform="translate(91,241)"/>
<path d="M0 0 C-0.22265625 1.85546875 -0.22265625 1.85546875 -1 4 C-2.99609375 5.30078125 -2.99609375 5.30078125 -5.4375 6.3125 C-6.64212891 6.83263672 -6.64212891 6.83263672 -7.87109375 7.36328125 C-10 8 -10 8 -12 7 C-11.01 6.67 -10.02 6.34 -9 6 C-9 5.34 -9 4.68 -9 4 C-7.68 4 -6.36 4 -5 4 C-5 3.34 -5 2.68 -5 2 C-2 0 -2 0 0 0 Z " fill="#081964" transform="translate(106,243)"/>
<path d="M0 0 C0.33 0 0.66 0 1 0 C1 2.31 1 4.62 1 7 C0.34 7 -0.32 7 -1 7 C-1.33 8.32 -1.66 9.64 -2 11 C-2.99 10.67 -3.98 10.34 -5 10 C-3.66654496 6.40992874 -2.1056769 3.20429093 0 0 Z " fill="#041865" transform="translate(318,262)"/>
<path d="M0 0 C0.66 0 1.32 0 2 0 C0.98823563 3.40320742 0.35156418 4.75725331 -2.625 6.8125 C-3.40875 7.204375 -4.1925 7.59625 -5 8 C-5 7.34 -5 6.68 -5 6 C-5.99 5.67 -6.98 5.34 -8 5 C-7.05125 4.54625 -6.1025 4.0925 -5.125 3.625 C-1.99686321 2.19761746 -1.99686321 2.19761746 0 0 Z " fill="#E4BAA5" transform="translate(188,220)"/>
<path d="M0 0 C0.33 0.99 0.66 1.98 1 3 C-1.35968744 5.09749995 -2.54616994 5.96905704 -5.75 6.1875 C-6.86375 6.0946875 -6.86375 6.0946875 -8 6 C-8 5.34 -8 4.68 -8 4 C-6 2.375 -6 2.375 -4 1 C-4 1.66 -4 2.32 -4 3 C-2.68 2.01 -1.36 1.02 0 0 Z " fill="#586585" transform="translate(116,272)"/>
<path d="M0 0 C0.66 0.33 1.32 0.66 2 1 C1.67 1.66 1.34 2.32 1 3 C1.99 3.33 2.98 3.66 4 4 C3.67 4.99 3.34 5.98 3 7 C1.125 6.75 1.125 6.75 -1 6 C-2.25 3.9375 -2.25 3.9375 -3 2 C-2.01 1.34 -1.02 0.68 0 0 Z " fill="#071962" transform="translate(100,254)"/>
<path d="M0 0 C0.99 0 1.98 0 3 0 C2.67 2.31 2.34 4.62 2 7 C1.01 7.33 0.02 7.66 -1 8 C-1.625 5.6875 -1.625 5.6875 -2 3 C-1.34 2.01 -0.68 1.02 0 0 Z " fill="#122370" transform="translate(101,236)"/>
<path d="M0 0 C0.66 0.33 1.32 0.66 2 1 C2 3.64 2 6.28 2 9 C1.01 9 0.02 9 -1 9 C-1.125 2.25 -1.125 2.25 0 0 Z " fill="#070707" transform="translate(178,288)"/>
<path d="M0 0 C0.66 0 1.32 0 2 0 C1.67 3.96 1.34 7.92 1 12 C-1 10 -1 10 -1.23046875 8.125 C-1.21628906 7.42375 -1.20210937 6.7225 -1.1875 6 C-1.18105469 5.29875 -1.17460937 4.5975 -1.16796875 3.875 C-1 2 -1 2 0 0 Z " fill="#0E1F5D" transform="translate(208,244)"/>
<path d="M0 0 C2.475 0.99 2.475 0.99 5 2 C4.67 3.32 4.34 4.64 4 6 C1.69 5.01 -0.62 4.02 -3 3 C-2.01 2.01 -1.02 1.02 0 0 Z " fill="#162970" transform="translate(293,238)"/>
<path d="M0 0 C0.99 0.33 1.98 0.66 3 1 C2.67 2.65 2.34 4.3 2 6 C0.68 5.67 -0.64 5.34 -2 5 C-1.125 1.125 -1.125 1.125 0 0 Z " fill="#4A4648" transform="translate(406,281)"/>
<path d="M0 0 C-2.39509338 2.89932357 -4.31245243 3.50168276 -8 4 C-8.33 3.01 -8.66 2.02 -9 1 C-6.04335481 -0.4783226 -3.25770263 -0.06032783 0 0 Z " fill="#304477" transform="translate(219,231)"/>
<path d="M0 0 C0.66 0 1.32 0 2 0 C2 2.31 2 4.62 2 7 C0.68 7 -0.64 7 -2 7 C-1.34 4.69 -0.68 2.38 0 0 Z " fill="#111111" transform="translate(361,290)"/>
<path d="M0 0 C2.475 0.495 2.475 0.495 5 1 C4 3 4 3 3 4 C2.63239269 6.32817964 2.29758419 8.6618385 2 11 C1.67 11 1.34 11 1 11 C0.67 7.37 0.34 3.74 0 0 Z " fill="#565656" transform="translate(175,286)"/>
<path d="M0 0 C0.99 0.33 1.98 0.66 3 1 C3 2.32 3 3.64 3 5 C1.68 5.33 0.36 5.66 -1 6 C-1.625 4.125 -1.625 4.125 -2 2 C-1.34 1.34 -0.68 0.68 0 0 Z " fill="#404143" transform="translate(210,281)"/>
<path d="M0 0 C0.268125 0.61875 0.53625 1.2375 0.8125 1.875 C1.95556848 4.2995233 1.95556848 4.2995233 5 6 C4.67 6.33 4.34 6.66 4 7 C1.66055264 6.71269945 -0.6739143 6.38063221 -3 6 C-2.34 5.67 -1.68 5.34 -1 5 C-0.34444881 2.47266765 -0.34444881 2.47266765 0 0 Z " fill="#6C759B" transform="translate(78,271)"/>
<path d="M0 0 C0.33 0.66 0.66 1.32 1 2 C0.67 2.99 0.34 3.98 0 5 C0.66 5.33 1.32 5.66 2 6 C0.02 6 -1.96 6 -4 6 C-4 4.68 -4 3.36 -4 2 C-2.68 1.34 -1.36 0.68 0 0 Z " fill="#04185D" transform="translate(99,267)"/>
<path d="M0 0 C0.33 0.66 0.66 1.32 1 2 C-0.98 4.97 -0.98 4.97 -3 8 C-3.33 7.34 -3.66 6.68 -4 6 C-4.66 5.67 -5.32 5.34 -6 5 C-4.02 3.35 -2.04 1.7 0 0 Z " fill="#E3B594" transform="translate(183,215)"/>
<path d="M0 0 C0.33 0 0.66 0 1 0 C2.25 7.625 2.25 7.625 0 11 C-0.99 10.67 -1.98 10.34 -3 10 C-2.67 9.01 -2.34 8.02 -2 7 C-1.34 7 -0.68 7 0 7 C0 4.69 0 2.38 0 0 Z " fill="#36457D" transform="translate(319,262)"/>
<path d="M0 0 C2.3431213 0.25561323 4.67843403 0.59270772 7 1 C7.33 1.66 7.66 2.32 8 3 C6.35 3.66 4.7 4.32 3 5 C3 4.34 3 3.68 3 3 C2.01 2.67 1.02 2.34 0 2 C0 1.34 0 0.68 0 0 Z " fill="#5F6989" transform="translate(108,228)"/>
<path d="M0 0 C0.99 0 1.98 0 3 0 C2.67 0.99 2.34 1.98 2 3 C-0.31 3.33 -2.62 3.66 -5 4 C-5.33 3.34 -5.66 2.68 -6 2 C-4.02 2 -2.04 2 0 2 C0 1.34 0 0.68 0 0 Z " fill="#3C4B7C" transform="translate(163,269)"/>
<path d="M0 0 C1.423125 0.495 1.423125 0.495 2.875 1 C5.77062452 2.10159191 5.77062452 2.10159191 8 2 C8 2.66 8 3.32 8 4 C7.01 4.495 7.01 4.495 6 5 C5.67 5.66 5.34 6.32 5 7 C3.35 4.69 1.7 2.38 0 0 Z " fill="#42508F" transform="translate(300,261)"/>
<path d="M0 0 C0.66 1.32 1.32 2.64 2 4 C2.66 4 3.32 4 4 4 C4 4.66 4 5.32 4 6 C4.66 6.33 5.32 6.66 6 7 C4.33388095 7.042721 2.66617115 7.04063832 1 7 C0 6 0 6 -0.0625 2.9375 C-0.041875 1.968125 -0.02125 0.99875 0 0 Z " fill="#394A7D" transform="translate(209,255)"/>
<path d="M0 0 C0.99 0 1.98 0 3 0 C2.67 1.65 2.34 3.3 2 5 C0.68 4.67 -0.64 4.34 -2 4 C-1.34 2.68 -0.68 1.36 0 0 Z " fill="#1E2A74" transform="translate(88,245)"/>
<path d="M0 0 C0.99 0 1.98 0 3 0 C3 1.65 3 3.3 3 5 C1.68 5 0.36 5 -1 5 C-0.67 3.35 -0.34 1.7 0 0 Z " fill="#161616" transform="translate(221,292)"/>
<path d="M0 0 C1.68762851 1.6454378 3.3540349 3.31288577 5 5 C5 5.33 5 5.66 5 6 C3.35 6 1.7 6 0 6 C0 4.02 0 2.04 0 0 Z " fill="#304881" transform="translate(300,244)"/>
<path d="M0 0 C1.98 0 3.96 0 6 0 C5.67 0.99 5.34 1.98 5 3 C3.35 3 1.7 3 0 3 C0 2.01 0 1.02 0 0 Z " fill="#DE916C" transform="translate(177,226)"/>
<path d="M0 0 C0.33 0 0.66 0 1 0 C1 1.65 1 3.3 1 5 C1.66 5.33 2.32 5.66 3 6 C1.02 6.99 1.02 6.99 -1 8 C-0.67 5.36 -0.34 2.72 0 0 Z M2 3 C2.66 3 3.32 3 4 3 C3.67 3.66 3.34 4.32 3 5 C2.67 4.34 2.34 3.68 2 3 Z " fill="#22317E" transform="translate(234,258)"/>
<path d="M0 0 C1.32 0 2.64 0 4 0 C4.66 1.65 5.32 3.3 6 5 C3.5625 4.1875 3.5625 4.1875 1 3 C0.67 2.01 0.34 1.02 0 0 Z " fill="#465482" transform="translate(377,250)"/>
<path d="M0 0 C2.875 -0.125 2.875 -0.125 6 0 C6.66 0.66 7.32 1.32 8 2 C5.36 2.33 2.72 2.66 0 3 C0 2.01 0 1.02 0 0 Z " fill="#132263" transform="translate(280,231)"/>
</svg>
